<svg width="98" height="98" viewBox="0 0 98 98" fill="none" xmlns="http://www.w3.org/2000/svg">
<g filter="url(#filter0_d_18_327)">
<rect x="10" y="5" width="68" height="68" rx="34" fill="#F3F6FC" shape-rendering="crispEdges"/>
<path d="M39.0731 35.46H41.6631V36.412H39.0731V35.46ZM39.0591 37.924H41.6351V38.876H39.0591V37.924ZM31.9751 33.822H39.0731V34.76H31.9751V33.822ZM35.5591 35.404C36.1284 35.404 36.6278 35.502 37.0571 35.698C37.4864 35.894 37.8224 36.1693 38.0651 36.524C38.3078 36.8693 38.4291 37.28 38.4291 37.756C38.4291 38.2227 38.3078 38.6333 38.0651 38.988C37.8224 39.3333 37.4864 39.604 37.0571 39.8C36.6278 39.996 36.1284 40.094 35.5591 40.094C34.9991 40.094 34.5044 39.996 34.0751 39.8C33.6458 39.604 33.3098 39.3333 33.0671 38.988C32.8244 38.6333 32.7031 38.2227 32.7031 37.756C32.7031 37.28 32.8244 36.8693 33.0671 36.524C33.3098 36.1693 33.6458 35.894 34.0751 35.698C34.5044 35.502 34.9991 35.404 35.5591 35.404ZM35.5591 36.3C35.0271 36.3 34.5978 36.4307 34.2711 36.692C33.9538 36.9533 33.7951 37.308 33.7951 37.756C33.7951 38.1947 33.9538 38.5493 34.2711 38.82C34.5978 39.0813 35.0271 39.212 35.5591 39.212C36.0911 39.212 36.5204 39.0813 36.8471 38.82C37.1831 38.5493 37.3511 38.1947 37.3511 37.756C37.3511 37.308 37.1831 36.9533 36.8471 36.692C36.5204 36.4307 36.0911 36.3 35.5591 36.3ZM34.9991 32.31H36.1471V34.466H34.9991V32.31ZM41.2151 32.422H42.3771V40.598H41.2151V32.422ZM38.2331 40.738C39.1104 40.738 39.8618 40.822 40.4871 40.99C41.1124 41.158 41.5931 41.4053 41.9291 41.732C42.2744 42.0587 42.4471 42.4507 42.4471 42.908C42.4471 43.356 42.2744 43.7433 41.9291 44.07C41.5931 44.3967 41.1124 44.644 40.4871 44.812C39.8618 44.98 39.1104 45.064 38.2331 45.064C37.3558 45.064 36.5998 44.98 35.9651 44.812C35.3398 44.644 34.8544 44.3967 34.5091 44.07C34.1731 43.7433 34.0051 43.356 34.0051 42.908C34.0051 42.4507 34.1731 42.0587 34.5091 41.732C34.8544 41.4053 35.3398 41.158 35.9651 40.99C36.5998 40.822 37.3558 40.738 38.2331 40.738ZM38.2331 41.648C37.2998 41.648 36.5624 41.7553 36.0211 41.97C35.4798 42.1847 35.2091 42.4973 35.2091 42.908C35.2091 43.3 35.4798 43.608 36.0211 43.832C36.5624 44.056 37.2998 44.168 38.2331 44.168C39.1571 44.168 39.8851 44.056 40.4171 43.832C40.9584 43.608 41.2291 43.3 41.2291 42.908C41.2291 42.4973 40.9584 42.1847 40.4171 41.97C39.8851 41.7553 39.1571 41.648 38.2331 41.648ZM47.654 33.514H48.606V35.782C48.606 36.482 48.5173 37.168 48.34 37.84C48.172 38.512 47.9293 39.142 47.612 39.73C47.2947 40.318 46.9213 40.8407 46.492 41.298C46.0627 41.7553 45.596 42.1193 45.092 42.39L44.378 41.452C44.8447 41.2187 45.274 40.906 45.666 40.514C46.0673 40.1127 46.4173 39.6553 46.716 39.142C47.0147 38.6287 47.2433 38.0873 47.402 37.518C47.57 36.9393 47.654 36.3607 47.654 35.782V33.514ZM47.864 33.514H48.802V35.782C48.802 36.342 48.8813 36.8973 49.04 37.448C49.208 37.9987 49.4413 38.5167 49.74 39.002C50.0387 39.4873 50.3793 39.9213 50.762 40.304C51.154 40.6867 51.574 40.99 52.022 41.214L51.308 42.138C50.8133 41.886 50.356 41.5407 49.936 41.102C49.5253 40.6633 49.1613 40.164 48.844 39.604C48.536 39.0347 48.2933 38.428 48.116 37.784C47.948 37.1307 47.864 36.4633 47.864 35.782V33.514ZM53.128 32.422H54.29V45.092H53.128V32.422ZM54.024 37.546H56.362V38.54H54.024V37.546Z" fill="#1F1E29"/>
</g>
<defs>
<filter id="filter0_d_18_327" x="-53" y="-58" width="194" height="194" filterUnits="userSpaceOnUse" color-interpolation-filters="sRGB">
<feFlood flood-opacity="0" result="BackgroundImageFix"/>
<feColorMatrix in="SourceAlpha" type="matrix" values="0 0 0 0 0 0 0 0 0 0 0 0 0 0 0 0 0 0 127 0" result="hardAlpha"/>
<feOffset dx="5" dy="10"/>
<feGaussianBlur stdDeviation="7.5"/>
<feComposite in2="hardAlpha" operator="out"/>
<feColorMatrix type="matrix" values="0 0 0 0 0.560784 0 0 0 0 0.627451 0 0 0 0 0.733333 0 0 0 0.15 0"/>
<feBlend mode="normal" in2="BackgroundImageFix" result="effect1_dropShadow_18_327"/>
<feBlend mode="normal" in="SourceGraphic" in2="effect1_dropShadow_18_327" result="shape"/>
</filter>
</defs>
</svg>
