<svg width="399" height="105" viewBox="0 0 399 105" fill="none" xmlns="http://www.w3.org/2000/svg">
<g opacity="0.2">
<path d="M399 52.5L352.465 105V0L399 52.5Z" fill="url(#paint0_linear_18_227)"/>
<path d="M0 36.4009L352.465 19.7503V54.5904V89.4305L0 70.7799V36.4009Z" fill="url(#paint1_linear_18_227)"/>
</g>
<path d="M194.658 41.864H197.874V64.16H194.658V41.864ZM197.178 50.096H201.09V52.736H197.178V50.096ZM181.314 56.192H183.186C184.45 56.192 185.634 56.176 186.738 56.144C187.842 56.096 188.914 56.024 189.954 55.928C190.994 55.816 192.058 55.664 193.146 55.472L193.458 58.112C192.338 58.304 191.234 58.456 190.146 58.568C189.074 58.68 187.97 58.752 186.834 58.784C185.698 58.816 184.482 58.832 183.186 58.832H181.314V56.192ZM181.314 43.928H191.682V46.496H184.506V57.44H181.314V43.928ZM217.312 41.864H220.504V64.16H217.312V41.864ZM208.528 43.424C209.664 43.424 210.672 43.752 211.552 44.408C212.432 45.048 213.12 45.968 213.616 47.168C214.128 48.352 214.384 49.752 214.384 51.368C214.384 53 214.128 54.416 213.616 55.616C213.12 56.8 212.432 57.72 211.552 58.376C210.672 59.016 209.664 59.336 208.528 59.336C207.408 59.336 206.408 59.016 205.528 58.376C204.648 57.72 203.952 56.8 203.44 55.616C202.944 54.416 202.696 53 202.696 51.368C202.696 49.752 202.944 48.352 203.44 47.168C203.952 45.968 204.648 45.048 205.528 44.408C206.408 43.752 207.408 43.424 208.528 43.424ZM208.528 46.328C207.984 46.328 207.504 46.52 207.088 46.904C206.672 47.288 206.344 47.856 206.104 48.608C205.88 49.344 205.768 50.264 205.768 51.368C205.768 52.456 205.88 53.384 206.104 54.152C206.344 54.904 206.672 55.472 207.088 55.856C207.504 56.24 207.984 56.432 208.528 56.432C209.088 56.432 209.576 56.24 209.992 55.856C210.408 55.472 210.728 54.904 210.952 54.152C211.192 53.384 211.312 52.456 211.312 51.368C211.312 50.264 211.192 49.344 210.952 48.608C210.728 47.856 210.408 47.288 209.992 46.904C209.576 46.52 209.088 46.328 208.528 46.328ZM227.439 56.648H242.607V64.136H239.415V59.168H227.439V56.648ZM224.559 52.448H226.071C227.143 52.448 228.095 52.44 228.927 52.424C229.775 52.392 230.583 52.344 231.351 52.28C232.135 52.2 232.927 52.088 233.727 51.944L234.015 54.44C233.199 54.584 232.391 54.696 231.591 54.776C230.791 54.84 229.943 54.888 229.047 54.92C228.167 54.936 227.175 54.944 226.071 54.944H224.559V52.448ZM224.511 43.52H232.359V50.312H227.631V54.104H224.559V48.008H229.263V46.016H224.511V43.52ZM239.559 41.888H242.607V55.736H239.559V41.888ZM233.103 47.144H237.303V49.712H233.103V47.144ZM235.095 42.344H238.095V55.616H235.095V42.344ZM247.621 53.336H263.245V55.856H247.621V53.336ZM245.269 59H265.405V61.592H245.269V59ZM247.621 43.52H263.077V46.064H250.861V54.032H247.621V43.52ZM249.877 48.416H262.573V50.888H249.877V48.416ZM277.613 43.616H280.181V46.832C280.181 48.208 280.061 49.552 279.821 50.864C279.581 52.16 279.205 53.368 278.693 54.488C278.197 55.608 277.565 56.608 276.797 57.488C276.029 58.352 275.125 59.04 274.085 59.552L272.165 56.984C273.109 56.552 273.917 55.976 274.589 55.256C275.277 54.536 275.845 53.72 276.293 52.808C276.741 51.896 277.069 50.936 277.277 49.928C277.501 48.904 277.613 47.872 277.613 46.832V43.616ZM278.237 43.616H280.805V46.832C280.805 47.84 280.901 48.832 281.093 49.808C281.301 50.784 281.613 51.712 282.029 52.592C282.461 53.456 282.997 54.232 283.637 54.92C284.277 55.608 285.045 56.176 285.941 56.624L283.997 59.168C283.005 58.656 282.141 57.984 281.405 57.152C280.685 56.304 280.093 55.336 279.629 54.248C279.165 53.144 278.813 51.968 278.573 50.72C278.349 49.456 278.237 48.16 278.237 46.832V43.616ZM286.805 41.912H290.021V64.136H286.805V41.912ZM289.325 50.456H293.237V53.096H289.325V50.456ZM309.603 41.888H312.819V58.136H309.603V41.888ZM305.787 48.368H310.059V50.96H305.787V48.368ZM302.619 43.568H305.955C305.955 45.568 305.555 47.376 304.755 48.992C303.955 50.608 302.795 52.008 301.275 53.192C299.771 54.376 297.939 55.312 295.779 56L294.459 53.456C296.171 52.912 297.635 52.224 298.851 51.392C300.067 50.544 300.995 49.584 301.635 48.512C302.291 47.424 302.619 46.256 302.619 45.008V43.568ZM295.611 43.568H304.635V46.112H295.611V43.568ZM298.251 61.184H313.371V63.752H298.251V61.184ZM298.251 56.528H301.443V62.672H298.251V56.528ZM331.273 41.864H334.465V64.16H331.273V41.864ZM327.337 50.408H331.993V53H327.337V50.408ZM320.953 47.672H323.425V48.824C323.425 49.992 323.297 51.144 323.041 52.28C322.801 53.416 322.425 54.488 321.913 55.496C321.417 56.504 320.785 57.4 320.017 58.184C319.265 58.968 318.385 59.584 317.377 60.032L315.673 57.56C316.569 57.16 317.345 56.64 318.001 56C318.673 55.344 319.225 54.624 319.657 53.84C320.089 53.04 320.409 52.216 320.617 51.368C320.841 50.504 320.953 49.656 320.953 48.824V47.672ZM321.625 47.672H324.121V48.824C324.121 49.608 324.225 50.416 324.433 51.248C324.657 52.064 324.985 52.856 325.417 53.624C325.849 54.376 326.393 55.064 327.049 55.688C327.721 56.312 328.505 56.824 329.401 57.224L327.745 59.648C326.721 59.216 325.825 58.624 325.057 57.872C324.305 57.12 323.673 56.256 323.161 55.28C322.649 54.304 322.265 53.272 322.009 52.184C321.753 51.08 321.625 49.96 321.625 48.824V47.672ZM316.417 45.512H328.537V48.032H316.417V45.512ZM320.929 42.416H324.121V46.832H320.929V42.416ZM352.704 41.864H355.92V64.16H352.704V41.864ZM338.616 56.384H340.584C341.896 56.384 343.136 56.368 344.304 56.336C345.472 56.288 346.616 56.216 347.736 56.12C348.856 56.008 350 55.848 351.168 55.64L351.504 58.208C349.712 58.528 347.944 58.744 346.2 58.856C344.472 58.952 342.6 59 340.584 59H338.616V56.384ZM338.568 43.76H349.056V52.376H341.856V57.368H338.616V49.856H345.816V46.328H338.568V43.76Z" fill="#0014C0"/>
<defs>
<linearGradient id="paint0_linear_18_227" x1="399" y1="52.5" x2="0" y2="52.5" gradientUnits="userSpaceOnUse">
<stop stop-color="#0014C0"/>
<stop offset="1" stop-color="#397BF4"/>
</linearGradient>
<linearGradient id="paint1_linear_18_227" x1="399" y1="52.5" x2="0" y2="52.5" gradientUnits="userSpaceOnUse">
<stop stop-color="#0014C0"/>
<stop offset="1" stop-color="#397BF4"/>
</linearGradient>
</defs>
</svg>
