<svg width="114" height="114" viewBox="0 0 114 114" fill="none" xmlns="http://www.w3.org/2000/svg">
<g filter="url(#filter0_d_18_333)">
<rect x="10.5" y="5.5" width="83" height="83" rx="41.5" stroke="white" stroke-dasharray="4 4" shape-rendering="crispEdges"/>
<path d="M33.6476 47.926H45.1276V48.864H33.6476V47.926ZM38.7856 48.36H39.9336V53.092H38.7856V48.36ZM35.1036 40.94H36.2516V42.676H42.5096V40.94H43.6716V46.414H35.1036V40.94ZM36.2516 43.614V45.462H42.5096V43.614H36.2516ZM46.2605 46.666H57.7125V47.604H46.2605V46.666ZM51.4125 44.636H52.5465V47.058H51.4125V44.636ZM47.7025 44.272H56.3685V45.21H47.7025V44.272ZM47.7025 41.01H56.2845V41.934H48.8505V44.832H47.7025V41.01ZM51.9725 48.514C53.3259 48.514 54.3852 48.7147 55.1505 49.116C55.9159 49.508 56.2985 50.068 56.2985 50.796C56.2985 51.524 55.9159 52.084 55.1505 52.476C54.3852 52.8773 53.3259 53.078 51.9725 53.078C50.6192 53.078 49.5552 52.8773 48.7805 52.476C48.0152 52.084 47.6325 51.524 47.6325 50.796C47.6325 50.068 48.0152 49.508 48.7805 49.116C49.5552 48.7147 50.6192 48.514 51.9725 48.514ZM51.9585 49.424C51.3052 49.424 50.7405 49.48 50.2645 49.592C49.7979 49.6947 49.4385 49.8487 49.1865 50.054C48.9345 50.25 48.8085 50.4973 48.8085 50.796C48.8085 51.0853 48.9345 51.3327 49.1865 51.538C49.4385 51.7433 49.7979 51.8973 50.2645 52C50.7405 52.112 51.3052 52.168 51.9585 52.168C52.6305 52.168 53.1999 52.112 53.6665 52C54.1425 51.8973 54.5065 51.7433 54.7585 51.538C55.0105 51.3327 55.1365 51.0853 55.1365 50.796C55.1365 50.4973 55.0105 50.25 54.7585 50.054C54.5065 49.8487 54.1425 49.6947 53.6665 49.592C53.1999 49.48 52.6305 49.424 51.9585 49.424ZM61.9675 41.192H62.9335V42.746C62.9335 43.5767 62.7888 44.342 62.4995 45.042C62.2101 45.7327 61.8041 46.3347 61.2815 46.848C60.7588 47.3613 60.1428 47.7533 59.4335 48.024L58.8035 47.1C59.4475 46.876 60.0075 46.5493 60.4835 46.12C60.9595 45.6813 61.3235 45.1727 61.5755 44.594C61.8368 44.0153 61.9675 43.3993 61.9675 42.746V41.192ZM62.1775 41.192H63.1155V42.788C63.1155 43.2173 63.1901 43.6373 63.3395 44.048C63.4981 44.4587 63.7128 44.846 63.9835 45.21C64.2635 45.5647 64.5901 45.8773 64.9635 46.148C65.3461 46.4093 65.7708 46.624 66.2375 46.792L65.6495 47.716C64.9588 47.4547 64.3521 47.0813 63.8295 46.596C63.3068 46.1107 62.9008 45.5413 62.6115 44.888C62.3221 44.2347 62.1775 43.5347 62.1775 42.788V41.192ZM67.5255 40.422H68.6875V49.774H67.5255V40.422ZM68.3235 44.3H70.5495V45.28H68.3235V44.3ZM60.8195 51.86H69.2475V52.812H60.8195V51.86ZM60.8195 48.878H61.9955V52.322H60.8195V48.878Z" fill="white"/>
</g>
<defs>
<filter id="filter0_d_18_333" x="-53" y="-58" width="210" height="210" filterUnits="userSpaceOnUse" color-interpolation-filters="sRGB">
<feFlood flood-opacity="0" result="BackgroundImageFix"/>
<feColorMatrix in="SourceAlpha" type="matrix" values="0 0 0 0 0 0 0 0 0 0 0 0 0 0 0 0 0 0 127 0" result="hardAlpha"/>
<feOffset dx="5" dy="10"/>
<feGaussianBlur stdDeviation="7.5"/>
<feComposite in2="hardAlpha" operator="out"/>
<feColorMatrix type="matrix" values="0 0 0 0 0.560784 0 0 0 0 0.627451 0 0 0 0 0.733333 0 0 0 0.15 0"/>
<feBlend mode="normal" in2="BackgroundImageFix" result="effect1_dropShadow_18_333"/>
<feBlend mode="normal" in="SourceGraphic" in2="effect1_dropShadow_18_333" result="shape"/>
</filter>
</defs>
</svg>
