<svg width="129" height="244" viewBox="0 0 129 244" fill="none" xmlns="http://www.w3.org/2000/svg">
<g opacity="0.2">
<path d="M64.5 244L0 198.837H129L64.5 244Z" fill="url(#paint0_linear_18_523)"/>
<path d="M84.2789 0L104.735 198.837H61.9318H23.0681L45.9817 0H84.2789Z" fill="url(#paint1_linear_18_523)"/>
</g>
<path d="M48.0102 174.254H49.8862V187.26H48.0102V174.254ZM49.4802 179.056H51.7622V180.596H49.4802V179.056ZM40.2262 182.612H41.3182C42.0555 182.612 42.7462 182.603 43.3902 182.584C44.0342 182.556 44.6595 182.514 45.2662 182.458C45.8729 182.393 46.4935 182.304 47.1282 182.192L47.3102 183.732C46.6569 183.844 46.0129 183.933 45.3782 183.998C44.7529 184.063 44.1089 184.105 43.4462 184.124C42.7835 184.143 42.0742 184.152 41.3182 184.152H40.2262V182.612ZM40.2262 175.458H46.2742V176.956H42.0882V183.34H40.2262V175.458ZM61.2251 174.254H63.0871V187.26H61.2251V174.254ZM56.1011 175.164C56.7638 175.164 57.3518 175.355 57.8651 175.738C58.3784 176.111 58.7798 176.648 59.0691 177.348C59.3678 178.039 59.5171 178.855 59.5171 179.798C59.5171 180.75 59.3678 181.576 59.0691 182.276C58.7798 182.967 58.3784 183.503 57.8651 183.886C57.3518 184.259 56.7638 184.446 56.1011 184.446C55.4478 184.446 54.8644 184.259 54.3511 183.886C53.8378 183.503 53.4318 182.967 53.1331 182.276C52.8438 181.576 52.6991 180.75 52.6991 179.798C52.6991 178.855 52.8438 178.039 53.1331 177.348C53.4318 176.648 53.8378 176.111 54.3511 175.738C54.8644 175.355 55.4478 175.164 56.1011 175.164ZM56.1011 176.858C55.7838 176.858 55.5038 176.97 55.2611 177.194C55.0184 177.418 54.8271 177.749 54.6871 178.188C54.5564 178.617 54.4911 179.154 54.4911 179.798C54.4911 180.433 54.5564 180.974 54.6871 181.422C54.8271 181.861 55.0184 182.192 55.2611 182.416C55.5038 182.64 55.7838 182.752 56.1011 182.752C56.4278 182.752 56.7124 182.64 56.9551 182.416C57.1978 182.192 57.3844 181.861 57.5151 181.422C57.6551 180.974 57.7251 180.433 57.7251 179.798C57.7251 179.154 57.6551 178.617 57.5151 178.188C57.3844 177.749 57.1978 177.418 56.9551 177.194C56.7124 176.97 56.4278 176.858 56.1011 176.858ZM67.132 182.878H75.98V187.246H74.118V184.348H67.132V182.878ZM65.452 180.428H66.334C66.9593 180.428 67.5147 180.423 68 180.414C68.4947 180.395 68.966 180.367 69.414 180.33C69.8713 180.283 70.3333 180.218 70.8 180.134L70.968 181.59C70.492 181.674 70.0207 181.739 69.554 181.786C69.0873 181.823 68.5927 181.851 68.07 181.87C67.5567 181.879 66.978 181.884 66.334 181.884H65.452V180.428ZM65.424 175.22H70.002V179.182H67.244V181.394H65.452V177.838H68.196V176.676H65.424V175.22ZM74.202 174.268H75.98V182.346H74.202V174.268ZM70.436 177.334H72.886V178.832H70.436V177.334ZM71.598 174.534H73.348V182.276H71.598V174.534ZM78.9049 180.946H88.0189V182.416H78.9049V180.946ZM77.5329 184.25H89.2789V185.762H77.5329V184.25ZM78.9049 175.22H87.9209V176.704H80.7949V181.352H78.9049V175.22ZM80.2209 178.076H87.6269V179.518H80.2209V178.076ZM42.6482 197.276H44.1462V199.152C44.1462 199.955 44.0762 200.739 43.9362 201.504C43.7962 202.26 43.5769 202.965 43.2782 203.618C42.9889 204.271 42.6202 204.855 42.1722 205.368C41.7242 205.872 41.1969 206.273 40.5902 206.572L39.4702 205.074C40.0209 204.822 40.4922 204.486 40.8842 204.066C41.2855 203.646 41.6169 203.17 41.8782 202.638C42.1395 202.106 42.3309 201.546 42.4522 200.958C42.5829 200.361 42.6482 199.759 42.6482 199.152V197.276ZM43.0122 197.276H44.5102V199.152C44.5102 199.74 44.5662 200.319 44.6782 200.888C44.7995 201.457 44.9815 201.999 45.2242 202.512C45.4762 203.016 45.7889 203.469 46.1622 203.87C46.5355 204.271 46.9835 204.603 47.5062 204.864L46.3722 206.348C45.7935 206.049 45.2895 205.657 44.8602 205.172C44.4402 204.677 44.0949 204.113 43.8242 203.478C43.5535 202.834 43.3482 202.148 43.2082 201.42C43.0775 200.683 43.0122 199.927 43.0122 199.152V197.276ZM48.0102 196.282H49.8862V209.246H48.0102V196.282ZM49.4802 201.266H51.7622V202.806H49.4802V201.266ZM61.3091 196.268H63.1851V205.746H61.3091V196.268ZM59.0831 200.048H61.5751V201.56H59.0831V200.048ZM57.2351 197.248H59.1811C59.1811 198.415 58.9478 199.469 58.4811 200.412C58.0144 201.355 57.3378 202.171 56.4511 202.862C55.5738 203.553 54.5051 204.099 53.2451 204.5L52.4751 203.016C53.4738 202.699 54.3278 202.297 55.0371 201.812C55.7464 201.317 56.2878 200.757 56.6611 200.132C57.0438 199.497 57.2351 198.816 57.2351 198.088V197.248ZM53.1471 197.248H58.4111V198.732H53.1471V197.248ZM54.6871 207.524H63.5071V209.022H54.6871V207.524ZM54.6871 204.808H56.5491V208.392H54.6871V204.808ZM73.95 196.254H75.812V209.26H73.95V196.254ZM71.654 201.238H74.37V202.75H71.654V201.238ZM67.93 199.642H69.372V200.314C69.372 200.995 69.2973 201.667 69.148 202.33C69.008 202.993 68.7887 203.618 68.49 204.206C68.2007 204.794 67.832 205.317 67.384 205.774C66.9453 206.231 66.432 206.591 65.844 206.852L64.85 205.41C65.3727 205.177 65.8253 204.873 66.208 204.5C66.6 204.117 66.922 203.697 67.174 203.24C67.426 202.773 67.6127 202.293 67.734 201.798C67.8647 201.294 67.93 200.799 67.93 200.314V199.642ZM68.322 199.642H69.778V200.314C69.778 200.771 69.8387 201.243 69.96 201.728C70.0907 202.204 70.282 202.666 70.534 203.114C70.786 203.553 71.1033 203.954 71.486 204.318C71.878 204.682 72.3353 204.981 72.858 205.214L71.892 206.628C71.2947 206.376 70.772 206.031 70.324 205.592C69.8853 205.153 69.5167 204.649 69.218 204.08C68.9193 203.511 68.6953 202.909 68.546 202.274C68.3967 201.63 68.322 200.977 68.322 200.314V199.642ZM65.284 198.382H72.354V199.852H65.284V198.382ZM67.916 196.576H69.778V199.152H67.916V196.576ZM86.4509 196.254H88.3269V209.26H86.4509V196.254ZM78.2329 204.724H79.3809C80.1462 204.724 80.8696 204.715 81.5509 204.696C82.2322 204.668 82.8996 204.626 83.5529 204.57C84.2062 204.505 84.8736 204.411 85.5549 204.29L85.7509 205.788C84.7056 205.975 83.6742 206.101 82.6569 206.166C81.6489 206.222 80.5569 206.25 79.3809 206.25H78.2329V204.724ZM78.2049 197.36H84.3229V202.386H80.1229V205.298H78.2329V200.916H82.4329V198.858H78.2049V197.36Z" fill="#0014C0"/>
<defs>
<linearGradient id="paint0_linear_18_523" x1="64.5" y1="264.5" x2="64.5" y2="0" gradientUnits="userSpaceOnUse">
<stop stop-color="#0014C0"/>
<stop offset="1" stop-color="#397BF4"/>
</linearGradient>
<linearGradient id="paint1_linear_18_523" x1="64.5" y1="264.5" x2="64.5" y2="0" gradientUnits="userSpaceOnUse">
<stop stop-color="#0014C0"/>
<stop offset="1" stop-color="#397BF4"/>
</linearGradient>
</defs>
</svg>
