<svg width="900" height="666" viewBox="0 0 900 666" fill="none" xmlns="http://www.w3.org/2000/svg">
<path d="M449.346 19.432C449.346 20.808 449.234 22.04 449.01 23.128C448.802 24.216 448.458 25.144 447.978 25.912C447.514 26.664 446.898 27.24 446.13 27.64C445.378 28.04 444.45 28.24 443.346 28.24C441.97 28.24 440.842 27.888 439.962 27.184C439.082 26.48 438.426 25.472 437.994 24.16C437.578 22.848 437.37 21.272 437.37 19.432C437.37 17.576 437.562 15.992 437.946 14.68C438.33 13.368 438.962 12.36 439.842 11.656C440.722 10.952 441.89 10.6 443.346 10.6C444.722 10.6 445.85 10.952 446.73 11.656C447.61 12.344 448.266 13.352 448.698 14.68C449.13 15.992 449.346 17.576 449.346 19.432ZM440.97 19.432C440.97 20.728 441.042 21.816 441.186 22.696C441.33 23.56 441.57 24.216 441.906 24.664C442.258 25.096 442.738 25.312 443.346 25.312C443.954 25.312 444.426 25.096 444.762 24.664C445.114 24.232 445.362 23.584 445.506 22.72C445.666 21.84 445.746 20.744 445.746 19.432C445.746 18.12 445.666 17.032 445.506 16.168C445.362 15.288 445.114 14.632 444.762 14.2C444.426 13.752 443.954 13.528 443.346 13.528C442.738 13.528 442.258 13.752 441.906 14.2C441.57 14.632 441.33 15.288 441.186 16.168C441.042 17.032 440.97 18.12 440.97 19.432ZM459.672 28H456.048V18.088C456.048 17.816 456.048 17.48 456.048 17.08C456.064 16.68 456.08 16.264 456.096 15.832C456.112 15.4 456.128 15.016 456.144 14.68C456.064 14.776 455.888 14.952 455.616 15.208C455.36 15.448 455.12 15.664 454.896 15.856L452.928 17.44L451.176 15.256L456.696 10.864H459.672V28Z" fill="#397BF4"/>
<path d="M264.414 95.72C266.201 95.72 267.774 96.24 269.134 97.28C270.494 98.2933 271.561 99.7467 272.334 101.64C273.107 103.533 273.494 105.76 273.494 108.32C273.494 110.88 273.107 113.107 272.334 115C271.561 116.893 270.494 118.36 269.134 119.4C267.774 120.44 266.201 120.96 264.414 120.96C262.654 120.96 261.081 120.44 259.694 119.4C258.334 118.36 257.267 116.893 256.494 115C255.721 113.107 255.334 110.88 255.334 108.32C255.334 105.76 255.721 103.533 256.494 101.64C257.267 99.7467 258.334 98.2933 259.694 97.28C261.081 96.24 262.654 95.72 264.414 95.72ZM264.414 98.68C263.267 98.68 262.241 99.08 261.334 99.88C260.454 100.653 259.761 101.773 259.254 103.24C258.747 104.68 258.494 106.373 258.494 108.32C258.494 110.267 258.747 111.973 259.254 113.44C259.761 114.88 260.454 116 261.334 116.8C262.241 117.6 263.281 118 264.454 118C265.601 118 266.614 117.6 267.494 116.8C268.401 116 269.094 114.88 269.574 113.44C270.081 111.973 270.334 110.267 270.334 108.32C270.334 106.373 270.081 104.68 269.574 103.24C269.094 101.773 268.401 100.653 267.494 99.88C266.614 99.08 265.587 98.68 264.414 98.68ZM279.294 92.92H282.614V129.12H279.294V92.92ZM281.854 107.36H288.534V110.16H281.854V107.36ZM290.771 113.92H323.571V116.64H290.771V113.92ZM305.451 115.6H308.731V129.08H305.451V115.6ZM294.971 94.92H319.371V109.04H294.971V94.92ZM316.091 97.6H298.211V106.4H316.091V97.6ZM353.168 92.92H356.448V129.16H353.168V92.92ZM328.888 117.64H331.888C333.941 117.64 335.914 117.613 337.808 117.56C339.728 117.48 341.661 117.347 343.608 117.16C345.581 116.973 347.634 116.707 349.768 116.36L350.088 119.08C346.834 119.613 343.768 119.973 340.888 120.16C338.008 120.32 335.008 120.4 331.888 120.4H328.888V117.64ZM328.808 96.28H345.528V109.2H332.248V118.68H328.888V106.52H342.168V99H328.808V96.28ZM376.915 102.84H401.395V105.56H376.915V102.84ZM376.915 93.84H380.235V104.36H376.915V93.84ZM372.395 109.24H405.115V111.96H372.395V109.24ZM387.075 116.92H389.875V117.52C389.875 119.093 389.502 120.52 388.755 121.8C388.035 123.08 387.035 124.2 385.755 125.16C384.475 126.12 382.995 126.92 381.315 127.56C379.662 128.2 377.915 128.653 376.075 128.92L374.835 126.36C376.489 126.147 378.049 125.787 379.515 125.28C380.982 124.747 382.275 124.107 383.395 123.36C384.542 122.587 385.435 121.707 386.075 120.72C386.742 119.733 387.075 118.667 387.075 117.52V116.92ZM387.635 116.92H390.475V117.52C390.475 118.667 390.795 119.733 391.435 120.72C392.102 121.707 392.995 122.587 394.115 123.36C395.262 124.107 396.569 124.747 398.035 125.28C399.502 125.787 401.062 126.147 402.715 126.36L401.475 128.92C399.635 128.653 397.875 128.2 396.195 127.56C394.542 126.92 393.062 126.12 391.755 125.16C390.475 124.2 389.462 123.08 388.715 121.8C387.995 120.52 387.635 119.093 387.635 117.52V116.92ZM376.275 115.76H401.275V118.44H376.275V115.76ZM418.032 95.72C419.792 95.72 421.352 96.24 422.712 97.28C424.072 98.2933 425.126 99.7467 425.872 101.64C426.646 103.533 427.032 105.76 427.032 108.32C427.032 110.88 426.646 113.107 425.872 115C425.126 116.893 424.072 118.36 422.712 119.4C421.352 120.44 419.792 120.96 418.032 120.96C416.299 120.96 414.739 120.44 413.352 119.4C411.992 118.36 410.926 116.893 410.152 115C409.406 113.107 409.032 110.88 409.032 108.32C409.032 105.76 409.406 103.533 410.152 101.64C410.926 99.7467 411.992 98.2933 413.352 97.28C414.739 96.24 416.299 95.72 418.032 95.72ZM418.032 98.68C416.886 98.68 415.872 99.08 414.992 99.88C414.112 100.653 413.419 101.773 412.912 103.24C412.432 104.68 412.192 106.373 412.192 108.32C412.192 110.267 412.432 111.973 412.912 113.44C413.419 114.88 414.112 116 414.992 116.8C415.872 117.6 416.886 118 418.032 118C419.206 118 420.232 117.6 421.112 116.8C421.992 116 422.672 114.88 423.152 113.44C423.659 111.973 423.912 110.267 423.912 108.32C423.912 106.373 423.659 104.68 423.152 103.24C422.672 101.773 421.992 100.653 421.112 99.88C420.232 99.08 419.206 98.68 418.032 98.68ZM434.872 92.92H438.152V129.16H434.872V92.92ZM425.952 106.72H436.352V109.4H425.952V106.72ZM448.549 109.84H473.389V112.52H448.549V109.84ZM444.389 121.8H477.189V124.56H444.389V121.8ZM459.069 111H462.349V122.88H459.069V111ZM448.549 95.8H473.029V98.56H451.869V111.04H448.549V95.8Z" fill="white"/>
<rect width="75" height="48" transform="translate(489.5 86)" fill="#397BF4"/>
<path d="M517.996 103.84C517.996 105.147 517.716 106.28 517.156 107.24C516.623 108.2 515.89 108.987 514.956 109.6C514.05 110.213 513.01 110.667 511.836 110.96V111.08C514.13 111.347 515.863 112.04 517.036 113.16C518.236 114.28 518.836 115.787 518.836 117.68C518.836 119.333 518.423 120.827 517.596 122.16C516.796 123.467 515.543 124.507 513.836 125.28C512.156 126.027 509.983 126.4 507.316 126.4C505.743 126.4 504.276 126.267 502.916 126C501.556 125.733 500.276 125.347 499.076 124.84V119.72C500.303 120.333 501.583 120.8 502.916 121.12C504.276 121.44 505.53 121.6 506.676 121.6C508.836 121.6 510.343 121.227 511.196 120.48C512.076 119.733 512.516 118.68 512.516 117.32C512.516 116.52 512.316 115.853 511.916 115.32C511.516 114.76 510.81 114.347 509.796 114.08C508.81 113.787 507.423 113.64 505.636 113.64H503.476V109H505.676C507.436 109 508.77 108.84 509.676 108.52C510.61 108.173 511.236 107.72 511.556 107.16C511.903 106.573 512.076 105.907 512.076 105.16C512.076 104.147 511.756 103.36 511.116 102.8C510.503 102.213 509.463 101.92 507.996 101.92C507.09 101.92 506.263 102.04 505.516 102.28C504.77 102.493 504.09 102.76 503.476 103.08C502.89 103.4 502.37 103.707 501.916 104L499.116 99.84C499.863 99.3067 500.69 98.8267 501.596 98.4C502.53 97.9733 503.556 97.64 504.676 97.4C505.796 97.16 507.05 97.04 508.436 97.04C511.37 97.04 513.69 97.64 515.396 98.84C517.13 100.013 517.996 101.68 517.996 103.84ZM531.687 93.56C533.607 93.56 535.3 93.9333 536.767 94.68C538.26 95.4 539.434 96.4 540.287 97.68C541.167 98.9333 541.607 100.387 541.607 102.04C541.607 103.693 541.167 105.16 540.287 106.44C539.434 107.693 538.26 108.68 536.767 109.4C535.3 110.12 533.607 110.48 531.687 110.48C529.82 110.48 528.14 110.12 526.647 109.4C525.154 108.68 523.967 107.693 523.087 106.44C522.234 105.16 521.807 103.693 521.807 102.04C521.807 100.387 522.234 98.92 523.087 97.64C523.967 96.36 525.154 95.36 526.647 94.64C528.14 93.92 529.82 93.56 531.687 93.56ZM531.727 97.88C530.82 97.88 530.007 98.0533 529.287 98.4C528.567 98.72 527.994 99.1867 527.567 99.8C527.167 100.413 526.967 101.16 526.967 102.04C526.967 102.92 527.167 103.68 527.567 104.32C527.994 104.933 528.554 105.4 529.247 105.72C529.967 106.04 530.794 106.2 531.727 106.2C532.634 106.2 533.434 106.04 534.127 105.72C534.847 105.4 535.407 104.933 535.807 104.32C536.234 103.68 536.447 102.92 536.447 102.04C536.447 101.16 536.234 100.413 535.807 99.8C535.407 99.1867 534.847 98.72 534.127 98.4C533.407 98.0533 532.607 97.88 531.727 97.88ZM546.727 92.52H552.047V111.04H546.727V92.52ZM527.367 112.56H552.047V122.68H532.647V127.2H527.407V118.84H546.767V116.64H527.367V112.56ZM527.407 125H552.967V129.16H527.407V125Z" fill="white"/>
<path d="M602.883 92.92H606.203V129.16H602.883V92.92ZM587.123 95.72C588.91 95.72 590.483 96.24 591.843 97.28C593.23 98.2933 594.31 99.7467 595.083 101.64C595.883 103.533 596.283 105.76 596.283 108.32C596.283 110.88 595.883 113.107 595.083 115C594.31 116.893 593.23 118.36 591.843 119.4C590.483 120.44 588.91 120.96 587.123 120.96C585.336 120.96 583.75 120.44 582.363 119.4C580.976 118.36 579.883 116.893 579.083 115C578.31 113.107 577.923 110.88 577.923 108.32C577.923 105.76 578.31 103.533 579.083 101.64C579.883 99.7467 580.976 98.2933 582.363 97.28C583.75 96.24 585.336 95.72 587.123 95.72ZM587.123 98.68C585.923 98.68 584.87 99.08 583.963 99.88C583.083 100.653 582.39 101.773 581.883 103.24C581.376 104.68 581.123 106.373 581.123 108.32C581.123 110.267 581.376 111.973 581.883 113.44C582.39 114.88 583.083 116 583.963 116.8C584.87 117.6 585.923 118 587.123 118C588.296 118 589.323 117.6 590.203 116.8C591.11 116 591.816 114.88 592.323 113.44C592.83 111.973 593.083 110.267 593.083 108.32C593.083 106.373 592.83 104.68 592.323 103.24C591.816 101.773 591.11 100.653 590.203 99.88C589.323 99.08 588.296 98.68 587.123 98.68ZM640.04 92.92H643.24V129.12H640.04V92.92ZM634 107.64H640.96V110.4H634V107.64ZM631.84 93.72H634.96V127.24H631.84V93.72ZM614.36 97.28H617.68V118.16H614.36V97.28ZM614.36 116.84H616.64C618.533 116.84 620.52 116.773 622.6 116.64C624.68 116.48 626.893 116.16 629.24 115.68L629.64 118.6C627.187 119.08 624.893 119.4 622.76 119.56C620.627 119.693 618.587 119.76 616.64 119.76H614.36V116.84Z" fill="white"/>
<path d="M269.732 156.52H275.052V183.52H269.732V156.52ZM250.372 188.64H276.012V192.92H250.372V188.64ZM250.372 180.92H255.692V190.84H250.372V180.92ZM252.972 158.56H257.372V162.16C257.372 164.56 256.985 166.853 256.212 169.04C255.465 171.227 254.318 173.147 252.772 174.8C251.225 176.453 249.252 177.707 246.852 178.56L244.132 174.32C246.212 173.6 247.892 172.6 249.172 171.32C250.478 170.04 251.438 168.6 252.052 167C252.665 165.4 252.972 163.787 252.972 162.16V158.56ZM254.052 158.56H258.372V162.16C258.372 163.36 258.532 164.547 258.852 165.72C259.198 166.867 259.718 167.96 260.412 169C261.105 170.013 261.998 170.933 263.092 171.76C264.185 172.587 265.478 173.24 266.972 173.72L264.292 177.92C261.945 177.147 260.012 175.973 258.492 174.4C256.972 172.827 255.852 170.987 255.132 168.88C254.412 166.773 254.052 164.533 254.052 162.16V158.56ZM288.568 163H292.888V164.32C292.888 166.48 292.515 168.52 291.768 170.44C291.022 172.36 289.875 174.027 288.328 175.44C286.808 176.853 284.875 177.907 282.528 178.6L280.008 174.48C282.008 173.893 283.635 173.08 284.888 172.04C286.168 170.973 287.102 169.773 287.688 168.44C288.275 167.08 288.568 165.707 288.568 164.32V163ZM289.568 163H293.888V164.32C293.888 165.28 294.048 166.227 294.368 167.16C294.715 168.093 295.235 168.973 295.928 169.8C296.648 170.627 297.555 171.36 298.648 172C299.742 172.64 301.022 173.16 302.488 173.56L300.088 177.72C297.742 177.08 295.782 176.107 294.208 174.8C292.662 173.467 291.502 171.893 290.728 170.08C289.955 168.267 289.568 166.347 289.568 164.32V163ZM281.288 160.32H301.208V164.52H281.288V160.32ZM288.568 156.36H293.888V162H288.568V156.36ZM300.168 166.36H307.208V170.64H300.168V166.36ZM305.928 156.52H311.288V178.88H305.928V156.52ZM298.728 179.48C302.648 179.48 305.742 180.093 308.008 181.32C310.275 182.547 311.408 184.28 311.408 186.52C311.408 188.733 310.275 190.453 308.008 191.68C305.742 192.933 302.648 193.56 298.728 193.56C294.808 193.56 291.715 192.933 289.448 191.68C287.182 190.453 286.048 188.733 286.048 186.52C286.048 184.28 287.182 182.547 289.448 181.32C291.715 180.093 294.808 179.48 298.728 179.48ZM298.728 183.56C297.128 183.56 295.768 183.667 294.648 183.88C293.555 184.093 292.728 184.427 292.168 184.88C291.608 185.307 291.328 185.853 291.328 186.52C291.328 187.16 291.608 187.707 292.168 188.16C292.728 188.613 293.555 188.947 294.648 189.16C295.768 189.373 297.128 189.48 298.728 189.48C300.355 189.48 301.715 189.373 302.808 189.16C303.902 188.947 304.715 188.613 305.248 188.16C305.808 187.707 306.088 187.16 306.088 186.52C306.088 185.853 305.808 185.307 305.248 184.88C304.715 184.427 303.902 184.093 302.808 183.88C301.715 183.667 300.355 183.56 298.728 183.56ZM334.965 168.08H344.725V172.36H334.965V168.08ZM324.885 159.32H329.165V164.72C329.165 167.04 328.965 169.293 328.565 171.48C328.165 173.667 327.552 175.707 326.725 177.6C325.899 179.493 324.845 181.16 323.565 182.6C322.312 184.04 320.819 185.2 319.085 186.08L315.765 181.84C317.339 181.093 318.685 180.12 319.805 178.92C320.952 177.72 321.899 176.36 322.645 174.84C323.419 173.293 323.979 171.667 324.325 169.96C324.699 168.227 324.885 166.48 324.885 164.72V159.32ZM325.965 159.32H330.205V164.72C330.205 166.453 330.379 168.173 330.725 169.88C331.072 171.56 331.592 173.133 332.285 174.6C333.005 176.067 333.925 177.373 335.045 178.52C336.165 179.64 337.499 180.547 339.045 181.24L335.845 185.48C334.112 184.627 332.619 183.507 331.365 182.12C330.112 180.707 329.085 179.093 328.285 177.28C327.512 175.467 326.925 173.493 326.525 171.36C326.152 169.227 325.965 167.013 325.965 164.72V159.32ZM342.045 156.44H347.365V193.6H342.045V156.44ZM381.288 164.8H388.288V169.08H381.288V164.8ZM386.888 156.52H392.208V176.76H386.888V156.52ZM367.648 178.24H372.928V181.64H386.968V178.24H392.208V193.16H367.648V178.24ZM372.928 185.72V188.88H386.968V185.72H372.928ZM369.808 159.36H374.128V161.72C374.128 164.04 373.754 166.253 373.008 168.36C372.261 170.467 371.114 172.307 369.568 173.88C368.048 175.453 366.088 176.64 363.688 177.44L361.048 173.24C362.568 172.707 363.874 172.04 364.968 171.24C366.088 170.44 366.994 169.52 367.688 168.48C368.408 167.44 368.941 166.347 369.288 165.2C369.634 164.053 369.808 162.893 369.808 161.72V159.36ZM370.928 159.36H375.168V161.68C375.168 163.12 375.461 164.56 376.048 166C376.634 167.413 377.541 168.693 378.768 169.84C380.021 170.987 381.621 171.893 383.568 172.56L380.968 176.72C378.674 175.947 376.781 174.8 375.288 173.28C373.821 171.76 372.728 170 372.008 168C371.288 166 370.928 163.893 370.928 161.68V159.36ZM362.488 158.2H382.408V162.4H362.488V158.2ZM411.205 157.56H415.845V159.32C415.845 160.733 415.618 162.107 415.165 163.44C414.738 164.747 414.098 165.973 413.245 167.12C412.391 168.267 411.351 169.293 410.125 170.2C408.898 171.107 407.471 171.88 405.845 172.52C404.245 173.133 402.485 173.6 400.565 173.92L398.485 169.64C400.191 169.427 401.711 169.067 403.045 168.56C404.405 168.053 405.591 167.453 406.605 166.76C407.645 166.067 408.498 165.307 409.165 164.48C409.831 163.653 410.338 162.8 410.685 161.92C411.031 161.04 411.205 160.173 411.205 159.32V157.56ZM412.205 157.56H416.845V159.32C416.845 160.173 417.018 161.04 417.365 161.92C417.711 162.8 418.218 163.653 418.885 164.48C419.551 165.307 420.391 166.067 421.405 166.76C422.445 167.453 423.631 168.053 424.965 168.56C426.325 169.067 427.858 169.427 429.565 169.64L427.485 173.92C425.538 173.6 423.765 173.133 422.165 172.52C420.565 171.88 419.151 171.107 417.925 170.2C416.698 169.267 415.658 168.227 414.805 167.08C413.951 165.933 413.298 164.707 412.845 163.4C412.418 162.093 412.205 160.733 412.205 159.32V157.56ZM411.205 179.96H416.525V193.56H411.205V179.96ZM397.245 176.6H430.765V180.92H397.245V176.6ZM433.242 173.12H466.762V176.96H433.242V173.12ZM437.002 178.84H462.802V187.64H442.322V190.8H437.042V184.28H457.562V182.44H437.002V178.84ZM437.042 189.64H463.842V193.24H437.042V189.64ZM437.322 157.12H462.682V165.88H442.642V168.88H437.402V162.52H457.442V160.72H437.322V157.12ZM437.402 167.8H463.362V171.4H437.402V167.8ZM478.204 184.92H511.764V189.24H478.204V184.92ZM492.284 177H497.564V185.96H492.284V177ZM481.724 158.84H487.044V164.56H502.804V158.84H508.084V178.12H481.724V158.84ZM487.044 168.72V173.88H502.804V168.72H487.044ZM522.441 160.64H526.801V162.96C526.801 165.307 526.414 167.533 525.641 169.64C524.894 171.747 523.748 173.6 522.201 175.2C520.654 176.773 518.694 177.947 516.321 178.72L513.681 174.52C515.708 173.853 517.361 172.92 518.641 171.72C519.948 170.493 520.908 169.12 521.521 167.6C522.134 166.053 522.441 164.507 522.441 162.96V160.64ZM523.521 160.64H527.801V162.96C527.801 164.4 528.094 165.8 528.681 167.16C529.268 168.493 530.174 169.693 531.401 170.76C532.654 171.827 534.281 172.667 536.281 173.28L533.721 177.44C531.374 176.747 529.441 175.68 527.921 174.24C526.428 172.773 525.321 171.08 524.601 169.16C523.881 167.213 523.521 165.147 523.521 162.96V160.64ZM515.041 158.96H535.081V163.2H515.041V158.96ZM538.001 156.52H543.321V178.48H538.001V156.52ZM541.881 165H548.241V169.36H541.881V165ZM531.241 179.12C533.828 179.12 536.054 179.413 537.921 180C539.788 180.56 541.228 181.373 542.241 182.44C543.254 183.507 543.761 184.8 543.761 186.32C543.761 187.84 543.254 189.133 542.241 190.2C541.228 191.293 539.788 192.12 537.921 192.68C536.054 193.267 533.828 193.56 531.241 193.56C528.681 193.56 526.454 193.267 524.561 192.68C522.694 192.12 521.241 191.293 520.201 190.2C519.188 189.133 518.681 187.84 518.681 186.32C518.681 184.8 519.188 183.507 520.201 182.44C521.241 181.373 522.694 180.56 524.561 180C526.454 179.413 528.681 179.12 531.241 179.12ZM531.241 183.28C529.668 183.28 528.348 183.387 527.281 183.6C526.214 183.813 525.401 184.147 524.841 184.6C524.281 185.053 524.001 185.627 524.001 186.32C524.001 187.04 524.281 187.627 524.841 188.08C525.401 188.533 526.214 188.88 527.281 189.12C528.348 189.333 529.668 189.44 531.241 189.44C532.814 189.44 534.134 189.333 535.201 189.12C536.294 188.88 537.108 188.533 537.641 188.08C538.201 187.627 538.481 187.04 538.481 186.32C538.481 185.627 538.201 185.053 537.641 184.6C537.108 184.147 536.294 183.813 535.201 183.6C534.134 183.387 532.814 183.28 531.241 183.28ZM575.318 156.92H578.638V177.96H575.318V156.92ZM577.198 166.16H583.958V168.96H577.198V166.16ZM555.878 179.56H559.158V183.36H575.318V179.56H578.638V192.64H555.878V179.56ZM559.158 185.96V189.96H575.318V185.96H559.158ZM550.638 160.64H571.998V163.32H550.638V160.64ZM561.318 165C563.051 165 564.558 165.267 565.838 165.8C567.144 166.307 568.158 167.04 568.878 168C569.598 168.933 569.958 170.04 569.958 171.32C569.958 172.6 569.598 173.72 568.878 174.68C568.158 175.64 567.144 176.387 565.838 176.92C564.558 177.427 563.051 177.68 561.318 177.68C559.584 177.68 558.064 177.427 556.758 176.92C555.478 176.387 554.464 175.64 553.718 174.68C552.998 173.72 552.638 172.6 552.638 171.32C552.638 170.04 552.998 168.933 553.718 168C554.464 167.04 555.478 166.307 556.758 165.8C558.064 165.267 559.584 165 561.318 165ZM561.318 167.52C559.664 167.52 558.331 167.867 557.318 168.56C556.331 169.253 555.838 170.173 555.838 171.32C555.838 172.493 556.331 173.427 557.318 174.12C558.331 174.813 559.664 175.16 561.318 175.16C562.944 175.16 564.264 174.813 565.278 174.12C566.291 173.427 566.798 172.493 566.798 171.32C566.798 170.173 566.291 169.253 565.278 168.56C564.291 167.867 562.971 167.52 561.318 167.52ZM559.678 156.6H562.998V162.08H559.678V156.6ZM612.875 156.92H616.155V193.12H612.875V156.92ZM588.835 160.48H592.115V182.88H588.835V160.48ZM588.835 180.92H591.795C594.568 180.92 597.381 180.8 600.235 180.56C603.115 180.293 606.075 179.853 609.115 179.24L609.555 182.04C606.408 182.707 603.381 183.173 600.475 183.44C597.568 183.68 594.675 183.8 591.795 183.8H588.835V180.92ZM647.032 156.92H650.352V193.16H647.032V156.92ZM649.592 171.2H656.272V173.96H649.592V171.2ZM624.112 181.32H626.952C629.165 181.32 631.192 181.293 633.032 181.24C634.898 181.16 636.685 181.027 638.392 180.84C640.125 180.653 641.885 180.4 643.672 180.08L644.072 182.92C642.205 183.24 640.392 183.493 638.632 183.68C636.898 183.867 635.085 183.987 633.192 184.04C631.298 184.093 629.218 184.12 626.952 184.12H624.112V181.32ZM624.112 160.44H640.872V163.16H627.392V182.6H624.112V160.44Z" fill="white"/>
<rect y="246" width="900" height="200" rx="16" fill="white"/>
<path d="M69.24 336.184H72V337.792C72 338.752 71.864 339.688 71.592 340.6C71.336 341.496 70.952 342.344 70.44 343.144C69.928 343.944 69.296 344.672 68.544 345.328C67.808 345.968 66.96 346.52 66 346.984C65.04 347.448 63.984 347.792 62.832 348.016L61.464 345.352C62.456 345.176 63.36 344.912 64.176 344.56C65.008 344.192 65.736 343.752 66.36 343.24C66.984 342.728 67.512 342.176 67.944 341.584C68.376 340.976 68.696 340.352 68.904 339.712C69.128 339.056 69.24 338.416 69.24 337.792V336.184ZM69.864 336.184H72.648V337.792C72.648 338.432 72.752 339.08 72.96 339.736C73.184 340.392 73.504 341.024 73.92 341.632C74.352 342.224 74.88 342.768 75.504 343.264C76.128 343.76 76.848 344.192 77.664 344.56C78.48 344.912 79.4 345.176 80.424 345.352L79.056 348.016C77.904 347.792 76.848 347.448 75.888 346.984C74.928 346.52 74.072 345.968 73.32 345.328C72.584 344.688 71.952 343.968 71.424 343.168C70.912 342.368 70.52 341.512 70.248 340.6C69.992 339.688 69.864 338.752 69.864 337.792V336.184ZM60.984 351.808H81.12V354.424H60.984V351.808ZM83.3261 345.664H84.8621C85.9341 345.664 86.8941 345.656 87.7421 345.64C88.6061 345.624 89.4221 345.584 90.1901 345.52C90.9581 345.44 91.7501 345.328 92.5661 345.184L92.8541 347.728C92.0061 347.856 91.1821 347.96 90.3821 348.04C89.5821 348.12 88.7341 348.176 87.8381 348.208C86.9581 348.224 85.9661 348.232 84.8621 348.232H83.3261V345.664ZM83.3261 336.64H92.0621V339.184H86.3981V346.696H83.3261V336.64ZM85.4861 341.176H91.8461V343.6H85.4861V341.176ZM98.4701 334.888H101.518V351.448H98.4701V334.888ZM95.7581 341.032H99.2861V343.6H95.7581V341.032ZM93.7421 335.296H96.7181V350.992H93.7421V335.296ZM86.5421 354.184H102.07V356.752H86.5421V354.184ZM86.5421 349.624H89.7581V355.84H86.5421V349.624ZM118.364 334.864H121.58V357.16H118.364V334.864ZM120.884 343.096H124.796V345.736H120.884V343.096ZM105.02 349.192H106.892C108.156 349.192 109.34 349.176 110.444 349.144C111.548 349.096 112.62 349.024 113.66 348.928C114.7 348.816 115.764 348.664 116.852 348.472L117.164 351.112C116.044 351.304 114.94 351.456 113.852 351.568C112.78 351.68 111.676 351.752 110.54 351.784C109.404 351.816 108.188 351.832 106.892 351.832H105.02V349.192ZM105.02 336.928H115.388V339.496H108.212V350.44H105.02V336.928ZM128.13 345.16H143.754V347.68H128.13V345.16ZM125.778 351.856H145.914V354.448H125.778V351.856ZM128.13 336.712H143.586V339.304H131.298V346.216H128.13V336.712Z" fill="#0014C0"/>
<rect x="201" y="287" width="118" height="118" rx="59" fill="white" stroke="#397BF4" stroke-width="2"/>
<path d="M257.405 323.114H258.827V339.404H257.405V323.114ZM254.651 329.648H257.783V330.872H254.651V329.648ZM253.715 323.474H255.101V338.558H253.715V323.474ZM245.597 334.13H246.659C247.463 334.13 248.189 334.124 248.837 334.112C249.497 334.088 250.121 334.04 250.709 333.968C251.309 333.896 251.921 333.794 252.545 333.662L252.689 334.904C252.041 335.036 251.411 335.138 250.799 335.21C250.199 335.282 249.563 335.33 248.891 335.354C248.231 335.378 247.487 335.39 246.659 335.39H245.597V334.13ZM245.597 325.094H251.645V326.318H247.091V334.706H245.597V325.094ZM265.306 331.934H266.8V336.578H265.306V331.934ZM270.31 331.952H271.804V336.596H270.31V331.952ZM261.22 336.182H275.98V337.424H261.22V336.182ZM262.516 324.626H274.594V325.85H262.516V324.626ZM262.552 331.124H274.558V332.348H262.552V331.124ZM265.036 325.616H266.53V331.376H265.036V325.616ZM270.58 325.616H272.056V331.376H270.58V325.616ZM244.698 355.102H249.378V356.326H244.698V355.102ZM244.698 358.612H249.414V359.836H244.698V358.612ZM248.82 352.132H250.314V364.174H248.82V352.132ZM239.856 366.82H250.692V368.044H239.856V366.82ZM239.856 363.004H241.35V367.432H239.856V363.004ZM237.714 353.212H239.208V356.074H243.6V353.212H245.076V361.402H237.714V353.212ZM239.208 357.244V360.196H243.6V357.244H239.208ZM253.841 354.508H267.071V355.732H253.841V354.508ZM253.121 365.272H267.881V366.496H253.121V365.272ZM259.727 362.68H261.203V365.74H259.727V362.68ZM260.465 356.812C261.557 356.812 262.499 356.938 263.291 357.19C264.095 357.43 264.713 357.778 265.145 358.234C265.577 358.69 265.793 359.248 265.793 359.908C265.793 360.556 265.577 361.114 265.145 361.582C264.713 362.05 264.095 362.41 263.291 362.662C262.499 362.902 261.557 363.022 260.465 363.022C259.373 363.022 258.425 362.902 257.621 362.662C256.829 362.41 256.217 362.05 255.785 361.582C255.353 361.114 255.137 360.556 255.137 359.908C255.137 359.248 255.353 358.69 255.785 358.234C256.217 357.778 256.829 357.43 257.621 357.19C258.425 356.938 259.373 356.812 260.465 356.812ZM260.465 358C259.673 358 258.989 358.078 258.413 358.234C257.849 358.378 257.411 358.594 257.099 358.882C256.799 359.158 256.649 359.5 256.649 359.908C256.649 360.304 256.799 360.646 257.099 360.934C257.411 361.222 257.849 361.444 258.413 361.6C258.989 361.744 259.673 361.816 260.465 361.816C261.257 361.816 261.935 361.744 262.499 361.6C263.063 361.444 263.501 361.222 263.813 360.934C264.125 360.646 264.281 360.304 264.281 359.908C264.281 359.5 264.125 359.158 263.813 358.882C263.501 358.594 263.063 358.378 262.499 358.234C261.935 358.078 261.257 358 260.465 358ZM259.727 352.384H261.203V355.246H259.727V352.384ZM273.297 353.518H274.521V356.434C274.521 357.334 274.407 358.216 274.179 359.08C273.963 359.944 273.651 360.754 273.243 361.51C272.835 362.266 272.355 362.938 271.803 363.526C271.251 364.114 270.651 364.582 270.003 364.93L269.085 363.724C269.685 363.424 270.237 363.022 270.741 362.518C271.257 362.002 271.707 361.414 272.091 360.754C272.475 360.094 272.769 359.398 272.973 358.666C273.189 357.922 273.297 357.178 273.297 356.434V353.518ZM273.567 353.518H274.773V356.434C274.773 357.154 274.875 357.868 275.079 358.576C275.295 359.284 275.595 359.95 275.979 360.574C276.363 361.198 276.801 361.756 277.293 362.248C277.797 362.74 278.337 363.13 278.913 363.418L277.995 364.606C277.359 364.282 276.771 363.838 276.231 363.274C275.703 362.71 275.235 362.068 274.827 361.348C274.431 360.616 274.119 359.836 273.891 359.008C273.675 358.168 273.567 357.31 273.567 356.434V353.518ZM280.335 352.114H281.829V368.404H280.335V352.114ZM281.487 358.702H284.493V359.98H281.487V358.702Z" fill="#1F1E29"/>
<rect x="720" y="286" width="120" height="120" rx="60" fill="#0014C0"/>
<path d="M752.301 339.518H753.525V342.434C753.525 343.334 753.411 344.216 753.183 345.08C752.967 345.944 752.655 346.754 752.247 347.51C751.839 348.266 751.359 348.938 750.807 349.526C750.255 350.114 749.655 350.582 749.007 350.93L748.089 349.724C748.689 349.424 749.241 349.022 749.745 348.518C750.261 348.002 750.711 347.414 751.095 346.754C751.479 346.094 751.773 345.398 751.977 344.666C752.193 343.922 752.301 343.178 752.301 342.434V339.518ZM752.571 339.518H753.777V342.434C753.777 343.154 753.879 343.868 754.083 344.576C754.299 345.284 754.599 345.95 754.983 346.574C755.367 347.198 755.805 347.756 756.297 348.248C756.801 348.74 757.341 349.13 757.917 349.418L756.999 350.606C756.363 350.282 755.775 349.838 755.235 349.274C754.707 348.71 754.239 348.068 753.831 347.348C753.435 346.616 753.123 345.836 752.895 345.008C752.679 344.168 752.571 343.31 752.571 342.434V339.518ZM759.339 338.114H760.833V354.404H759.339V338.114ZM760.491 344.702H763.497V345.98H760.491V344.702ZM776.419 338.132H777.913V350.156H776.419V338.132ZM772.891 343.136H776.707V344.378H772.891V343.136ZM771.379 339.374H772.963C772.963 340.778 772.651 342.062 772.027 343.226C771.403 344.378 770.527 345.38 769.399 346.232C768.271 347.084 766.939 347.768 765.403 348.284L764.773 347.078C766.093 346.634 767.251 346.064 768.247 345.368C769.243 344.672 770.011 343.868 770.551 342.956C771.103 342.044 771.379 341.054 771.379 339.986V339.374ZM765.583 339.374H772.351V340.616H765.583V339.374ZM767.617 352.82H778.327V354.044H767.617V352.82ZM767.617 348.932H769.129V353.432H767.617V348.932ZM792.618 338.114H794.112V354.422H792.618V338.114ZM789.126 344.648H793.05V345.872H789.126V344.648ZM784.86 341.984H786.048V343.388C786.048 344.24 785.94 345.074 785.724 345.89C785.508 346.694 785.196 347.444 784.788 348.14C784.38 348.836 783.906 349.454 783.366 349.994C782.826 350.522 782.232 350.942 781.584 351.254L780.756 350.102C781.344 349.814 781.89 349.436 782.394 348.968C782.898 348.5 783.336 347.966 783.708 347.366C784.08 346.766 784.362 346.13 784.554 345.458C784.758 344.774 784.86 344.084 784.86 343.388V341.984ZM785.148 341.984H786.336V343.388C786.336 344.06 786.438 344.72 786.642 345.368C786.858 346.004 787.152 346.61 787.524 347.186C787.896 347.762 788.334 348.278 788.838 348.734C789.354 349.178 789.912 349.538 790.512 349.814L789.684 350.966C789.024 350.666 788.418 350.258 787.866 349.742C787.314 349.226 786.834 348.638 786.426 347.978C786.018 347.306 785.7 346.58 785.472 345.8C785.256 345.02 785.148 344.216 785.148 343.388V341.984ZM781.188 340.94H789.954V342.146H781.188V340.94ZM784.86 338.42H786.354V341.606H784.86V338.42ZM808.781 338.114H810.257V354.422H808.781V338.114ZM797.855 349.238H799.205C800.129 349.238 801.017 349.226 801.869 349.202C802.733 349.166 803.603 349.106 804.479 349.022C805.367 348.938 806.291 348.818 807.251 348.662L807.395 349.886C805.931 350.126 804.551 350.288 803.255 350.372C801.959 350.444 800.609 350.48 799.205 350.48H797.855V349.238ZM797.819 339.626H805.343V345.44H799.367V349.706H797.855V344.234H803.831V340.85H797.819V339.626Z" fill="white"/>
<rect y="466" width="900" height="200" rx="16" fill="#3A5381"/>
<path d="M75.168 554.864H78.384V577.16H75.168V554.864ZM77.688 563.096H81.6V565.736H77.688V563.096ZM61.824 569.192H63.696C64.96 569.192 66.144 569.176 67.248 569.144C68.352 569.096 69.424 569.024 70.464 568.928C71.504 568.816 72.568 568.664 73.656 568.472L73.968 571.112C72.848 571.304 71.744 571.456 70.656 571.568C69.584 571.68 68.48 571.752 67.344 571.784C66.208 571.816 64.992 571.832 63.696 571.832H61.824V569.192ZM61.824 556.928H72.192V559.496H65.016V570.44H61.824V556.928ZM82.5821 566.912H102.694V569.456H82.5821V566.912ZM85.1021 574.184H100.774V576.752H85.1021V574.184ZM85.1021 570.656H88.2701V575.312H85.1021V570.656ZM85.0301 555.392H100.246V561.584H88.2221V563.864H85.0781V559.328H97.1021V557.816H85.0301V555.392ZM85.0781 563.12H100.678V565.544H85.0781V563.12ZM109.935 572.096H130.071V574.688H109.935V572.096ZM118.383 567.872H121.551V573.128H118.383V567.872ZM112.215 556.328H127.791V563.744H115.407V567.464H112.239V561.248H124.623V558.872H112.215V556.328ZM112.239 566.216H128.295V568.76H112.239V566.216ZM143.797 560.264H148.789V562.832H143.797V560.264ZM146.917 554.912H150.133V567.872H146.917V554.912ZM135.301 568.856H150.133V576.896H135.301V568.856ZM146.989 571.352H138.445V574.376H146.989V571.352ZM132.061 556.232H143.893V558.752H132.061V556.232ZM131.845 567.344L131.533 564.728C132.797 564.728 134.173 564.72 135.661 564.704C137.165 564.688 138.693 564.64 140.245 564.56C141.797 564.48 143.269 564.352 144.661 564.176L144.877 566.504C143.437 566.744 141.949 566.928 140.413 567.056C138.893 567.168 137.397 567.248 135.925 567.296C134.453 567.328 133.093 567.344 131.845 567.344ZM133.837 558.248H136.909V565.688H133.837V558.248ZM139.069 558.248H142.141V565.688H139.069V558.248Z" fill="white"/>
<path d="M720 566L710 560.226V571.774L720 566ZM200 567H202V565H200V567ZM206 567H210V565H206V567ZM214 567H218V565H214V567ZM222 567H226V565H222V567ZM230 567H234V565H230V567ZM238 567H242V565H238V567ZM246 567H250V565H246V567ZM254 567H258V565H254V567ZM262 567H266V565H262V567ZM270 567H274V565H270V567ZM278 567H282V565H278V567ZM286 567H290V565H286V567ZM294 567H298V565H294V567ZM302 567H306V565H302V567ZM310 567H314V565H310V567ZM318 567H322V565H318V567ZM326 567H330V565H326V567ZM334 567H338V565H334V567ZM342 567H346V565H342V567ZM350 567H354V565H350V567ZM358 567H362V565H358V567ZM366 567H370V565H366V567ZM374 567H378V565H374V567ZM382 567H386V565H382V567ZM390 567H394V565H390V567ZM398 567H402V565H398V567ZM406 567H410V565H406V567ZM414 567H418V565H414V567ZM422 567H426V565H422V567ZM430 567H434V565H430V567ZM438 567H442V565H438V567ZM446 567H450V565H446V567ZM454 567H458V565H454V567ZM462 567H466V565H462V567ZM470 567H474V565H470V567ZM478 567H482V565H478V567ZM486 567H490V565H486V567ZM494 567H498V565H494V567ZM502 567H506V565H502V567ZM510 567H514V565H510V567ZM518 567H522V565H518V567ZM526 567H530V565H526V567ZM534 567H538V565H534V567ZM542 567H546V565H542V567ZM550 567H554V565H550V567ZM558 567H562V565H558V567ZM566 567H570V565H566V567ZM574 567H578V565H574V567ZM582 567H586V565H582V567ZM590 567H594V565H590V567ZM598 567H602V565H598V567ZM606 567H610V565H606V567ZM614 567H618V565H614V567ZM622 567H626V565H622V567ZM630 567H634V565H630V567ZM638 567H642V565H638V567ZM646 567H650V565H646V567ZM654 567H658V565H654V567ZM662 567H666V565H662V567ZM670 567H674V565H670V567ZM678 567H682V565H678V567ZM686 567H690V565H686V567ZM694 567H698V565H694V567ZM702 567H706V565H702V567ZM710 567H714V565H710V567ZM720 566L710 560.226V571.774L720 566ZM200 567H202V565H200V567ZM206 567H210V565H206V567ZM214 567H218V565H214V567ZM222 567H226V565H222V567ZM230 567H234V565H230V567ZM238 567H242V565H238V567ZM246 567H250V565H246V567ZM254 567H258V565H254V567ZM262 567H266V565H262V567ZM270 567H274V565H270V567ZM278 567H282V565H278V567ZM286 567H290V565H286V567ZM294 567H298V565H294V567ZM302 567H306V565H302V567ZM310 567H314V565H310V567ZM318 567H322V565H318V567ZM326 567H330V565H326V567ZM334 567H338V565H334V567ZM342 567H346V565H342V567ZM350 567H354V565H350V567ZM358 567H362V565H358V567ZM366 567H370V565H366V567ZM374 567H378V565H374V567ZM382 567H386V565H382V567ZM390 567H394V565H390V567ZM398 567H402V565H398V567ZM406 567H410V565H406V567ZM414 567H418V565H414V567ZM422 567H426V565H422V567ZM430 567H434V565H430V567ZM438 567H442V565H438V567ZM446 567H450V565H446V567ZM454 567H458V565H454V567ZM462 567H466V565H462V567ZM470 567H474V565H470V567ZM478 567H482V565H478V567ZM486 567H490V565H486V567ZM494 567H498V565H494V567ZM502 567H506V565H502V567ZM510 567H514V565H510V567ZM518 567H522V565H518V567ZM526 567H530V565H526V567ZM534 567H538V565H534V567ZM542 567H546V565H542V567ZM550 567H554V565H550V567ZM558 567H562V565H558V567ZM566 567H570V565H566V567ZM574 567H578V565H574V567ZM582 567H586V565H582V567ZM590 567H594V565H590V567ZM598 567H602V565H598V567ZM606 567H610V565H606V567ZM614 567H618V565H614V567ZM622 567H626V565H622V567ZM630 567H634V565H630V567ZM638 567H642V565H638V567ZM646 567H650V565H646V567ZM654 567H658V565H654V567ZM662 567H666V565H662V567ZM670 567H674V565H670V567ZM678 567H682V565H678V567ZM686 567H690V565H686V567ZM694 567H698V565H694V567ZM702 567H706V565H702V567ZM710 567H714V565H710V567Z" fill="#8F8F8F"/>
<rect x="200" y="506" width="120" height="120" rx="60" fill="white"/>
<path d="M257.405 543.114H258.827V559.404H257.405V543.114ZM254.651 549.648H257.783V550.872H254.651V549.648ZM253.715 543.474H255.101V558.558H253.715V543.474ZM245.597 554.13H246.659C247.463 554.13 248.189 554.124 248.837 554.112C249.497 554.088 250.121 554.04 250.709 553.968C251.309 553.896 251.921 553.794 252.545 553.662L252.689 554.904C252.041 555.036 251.411 555.138 250.799 555.21C250.199 555.282 249.563 555.33 248.891 555.354C248.231 555.378 247.487 555.39 246.659 555.39H245.597V554.13ZM245.597 545.094H251.645V546.318H247.091V554.706H245.597V545.094ZM265.306 551.934H266.8V556.578H265.306V551.934ZM270.31 551.952H271.804V556.596H270.31V551.952ZM261.22 556.182H275.98V557.424H261.22V556.182ZM262.516 544.626H274.594V545.85H262.516V544.626ZM262.552 551.124H274.558V552.348H262.552V551.124ZM265.036 545.616H266.53V551.376H265.036V545.616ZM270.58 545.616H272.056V551.376H270.58V545.616ZM244.698 575.102H249.378V576.326H244.698V575.102ZM244.698 578.612H249.414V579.836H244.698V578.612ZM248.82 572.132H250.314V584.174H248.82V572.132ZM239.856 586.82H250.692V588.044H239.856V586.82ZM239.856 583.004H241.35V587.432H239.856V583.004ZM237.714 573.212H239.208V576.074H243.6V573.212H245.076V581.402H237.714V573.212ZM239.208 577.244V580.196H243.6V577.244H239.208ZM253.841 574.508H267.071V575.732H253.841V574.508ZM253.121 585.272H267.881V586.496H253.121V585.272ZM259.727 582.68H261.203V585.74H259.727V582.68ZM260.465 576.812C261.557 576.812 262.499 576.938 263.291 577.19C264.095 577.43 264.713 577.778 265.145 578.234C265.577 578.69 265.793 579.248 265.793 579.908C265.793 580.556 265.577 581.114 265.145 581.582C264.713 582.05 264.095 582.41 263.291 582.662C262.499 582.902 261.557 583.022 260.465 583.022C259.373 583.022 258.425 582.902 257.621 582.662C256.829 582.41 256.217 582.05 255.785 581.582C255.353 581.114 255.137 580.556 255.137 579.908C255.137 579.248 255.353 578.69 255.785 578.234C256.217 577.778 256.829 577.43 257.621 577.19C258.425 576.938 259.373 576.812 260.465 576.812ZM260.465 578C259.673 578 258.989 578.078 258.413 578.234C257.849 578.378 257.411 578.594 257.099 578.882C256.799 579.158 256.649 579.5 256.649 579.908C256.649 580.304 256.799 580.646 257.099 580.934C257.411 581.222 257.849 581.444 258.413 581.6C258.989 581.744 259.673 581.816 260.465 581.816C261.257 581.816 261.935 581.744 262.499 581.6C263.063 581.444 263.501 581.222 263.813 580.934C264.125 580.646 264.281 580.304 264.281 579.908C264.281 579.5 264.125 579.158 263.813 578.882C263.501 578.594 263.063 578.378 262.499 578.234C261.935 578.078 261.257 578 260.465 578ZM259.727 572.384H261.203V575.246H259.727V572.384ZM273.297 573.518H274.521V576.434C274.521 577.334 274.407 578.216 274.179 579.08C273.963 579.944 273.651 580.754 273.243 581.51C272.835 582.266 272.355 582.938 271.803 583.526C271.251 584.114 270.651 584.582 270.003 584.93L269.085 583.724C269.685 583.424 270.237 583.022 270.741 582.518C271.257 582.002 271.707 581.414 272.091 580.754C272.475 580.094 272.769 579.398 272.973 578.666C273.189 577.922 273.297 577.178 273.297 576.434V573.518ZM273.567 573.518H274.773V576.434C274.773 577.154 274.875 577.868 275.079 578.576C275.295 579.284 275.595 579.95 275.979 580.574C276.363 581.198 276.801 581.756 277.293 582.248C277.797 582.74 278.337 583.13 278.913 583.418L277.995 584.606C277.359 584.282 276.771 583.838 276.231 583.274C275.703 582.71 275.235 582.068 274.827 581.348C274.431 580.616 274.119 579.836 273.891 579.008C273.675 578.168 273.567 577.31 273.567 576.434V573.518ZM280.335 572.114H281.829V588.404H280.335V572.114ZM281.487 578.702H284.493V579.98H281.487V578.702Z" fill="#1F1E29"/>
<rect x="360" y="506" width="120" height="120" rx="60" fill="#EFEFEF"/>
<path d="M405.957 550.638H407.271C408.447 550.638 409.467 550.632 410.331 550.62C411.207 550.596 412.017 550.548 412.761 550.476C413.505 550.404 414.255 550.308 415.011 550.188L415.173 551.376C414.381 551.508 413.607 551.61 412.851 551.682C412.095 551.742 411.273 551.784 410.385 551.808C409.497 551.832 408.459 551.844 407.271 551.844H405.957V550.638ZM405.957 544.104H413.697V545.328H407.451V551.25H405.957V544.104ZM406.965 547.326H413.247V548.514H406.965V547.326ZM416.865 543.132H418.359V552.834H416.865V543.132ZM407.847 553.644H418.359V559.188H407.847V553.644ZM416.901 554.832H409.305V557.964H416.901V554.832ZM425.234 544.86H426.458V546.174C426.458 547.182 426.266 548.112 425.882 548.964C425.51 549.816 424.982 550.56 424.298 551.196C423.626 551.832 422.828 552.318 421.904 552.654L421.148 551.466C421.964 551.178 422.678 550.77 423.29 550.242C423.902 549.702 424.376 549.084 424.712 548.388C425.06 547.692 425.234 546.954 425.234 546.174V544.86ZM425.504 544.86H426.728V546.174C426.728 546.882 426.89 547.554 427.214 548.19C427.538 548.826 427.994 549.384 428.582 549.864C429.17 550.344 429.86 550.722 430.652 550.998L429.95 552.168C429.038 551.856 428.252 551.406 427.592 550.818C426.932 550.23 426.416 549.54 426.044 548.748C425.684 547.944 425.504 547.086 425.504 546.174V544.86ZM421.598 544.32H430.31V545.544H421.598V544.32ZM432.362 543.114H433.856V552.924H432.362V543.114ZM433.442 547.254H436.25V548.496H433.442V547.254ZM428.672 553.374C429.776 553.374 430.724 553.494 431.516 553.734C432.32 553.962 432.938 554.298 433.37 554.742C433.802 555.186 434.018 555.726 434.018 556.362C434.018 556.998 433.802 557.538 433.37 557.982C432.938 558.426 432.32 558.768 431.516 559.008C430.724 559.248 429.776 559.368 428.672 559.368C427.568 559.368 426.614 559.248 425.81 559.008C425.006 558.768 424.388 558.426 423.956 557.982C423.524 557.538 423.308 556.998 423.308 556.362C423.308 555.726 423.524 555.186 423.956 554.742C424.388 554.298 425.006 553.962 425.81 553.734C426.614 553.494 427.568 553.374 428.672 553.374ZM428.672 554.562C427.868 554.562 427.172 554.634 426.584 554.778C426.008 554.922 425.564 555.126 425.252 555.39C424.94 555.654 424.784 555.978 424.784 556.362C424.784 556.746 424.94 557.076 425.252 557.352C425.564 557.616 426.008 557.82 426.584 557.964C427.172 558.108 427.868 558.18 428.672 558.18C429.476 558.18 430.166 558.108 430.742 557.964C431.318 557.82 431.762 557.616 432.074 557.352C432.386 557.076 432.542 556.746 432.542 556.362C432.542 555.978 432.386 555.654 432.074 555.39C431.762 555.126 431.318 554.922 430.742 554.778C430.166 554.634 429.476 554.562 428.672 554.562ZM404.698 575.102H409.378V576.326H404.698V575.102ZM404.698 578.612H409.414V579.836H404.698V578.612ZM408.82 572.132H410.314V584.174H408.82V572.132ZM399.856 586.82H410.692V588.044H399.856V586.82ZM399.856 583.004H401.35V587.432H399.856V583.004ZM397.714 573.212H399.208V576.074H403.6V573.212H405.076V581.402H397.714V573.212ZM399.208 577.244V580.196H403.6V577.244H399.208ZM413.841 574.508H427.071V575.732H413.841V574.508ZM413.121 585.272H427.881V586.496H413.121V585.272ZM419.727 582.68H421.203V585.74H419.727V582.68ZM420.465 576.812C421.557 576.812 422.499 576.938 423.291 577.19C424.095 577.43 424.713 577.778 425.145 578.234C425.577 578.69 425.793 579.248 425.793 579.908C425.793 580.556 425.577 581.114 425.145 581.582C424.713 582.05 424.095 582.41 423.291 582.662C422.499 582.902 421.557 583.022 420.465 583.022C419.373 583.022 418.425 582.902 417.621 582.662C416.829 582.41 416.217 582.05 415.785 581.582C415.353 581.114 415.137 580.556 415.137 579.908C415.137 579.248 415.353 578.69 415.785 578.234C416.217 577.778 416.829 577.43 417.621 577.19C418.425 576.938 419.373 576.812 420.465 576.812ZM420.465 578C419.673 578 418.989 578.078 418.413 578.234C417.849 578.378 417.411 578.594 417.099 578.882C416.799 579.158 416.649 579.5 416.649 579.908C416.649 580.304 416.799 580.646 417.099 580.934C417.411 581.222 417.849 581.444 418.413 581.6C418.989 581.744 419.673 581.816 420.465 581.816C421.257 581.816 421.935 581.744 422.499 581.6C423.063 581.444 423.501 581.222 423.813 580.934C424.125 580.646 424.281 580.304 424.281 579.908C424.281 579.5 424.125 579.158 423.813 578.882C423.501 578.594 423.063 578.378 422.499 578.234C421.935 578.078 421.257 578 420.465 578ZM419.727 572.384H421.203V575.246H419.727V572.384ZM433.297 573.518H434.521V576.434C434.521 577.334 434.407 578.216 434.179 579.08C433.963 579.944 433.651 580.754 433.243 581.51C432.835 582.266 432.355 582.938 431.803 583.526C431.251 584.114 430.651 584.582 430.003 584.93L429.085 583.724C429.685 583.424 430.237 583.022 430.741 582.518C431.257 582.002 431.707 581.414 432.091 580.754C432.475 580.094 432.769 579.398 432.973 578.666C433.189 577.922 433.297 577.178 433.297 576.434V573.518ZM433.567 573.518H434.773V576.434C434.773 577.154 434.875 577.868 435.079 578.576C435.295 579.284 435.595 579.95 435.979 580.574C436.363 581.198 436.801 581.756 437.293 582.248C437.797 582.74 438.337 583.13 438.913 583.418L437.995 584.606C437.359 584.282 436.771 583.838 436.231 583.274C435.703 582.71 435.235 582.068 434.827 581.348C434.431 580.616 434.119 579.836 433.891 579.008C433.675 578.168 433.567 577.31 433.567 576.434V573.518ZM440.335 572.114H441.829V588.404H440.335V572.114ZM441.487 578.702H444.493V579.98H441.487V578.702Z" fill="#1F1E29"/>
<rect x="520" y="506" width="120" height="120" rx="60" fill="#D6D6D6"/>
<path d="M569.593 543.708C570.409 543.708 571.129 543.864 571.753 544.176C572.389 544.476 572.887 544.896 573.247 545.436C573.607 545.976 573.787 546.606 573.787 547.326C573.787 548.034 573.607 548.664 573.247 549.216C572.887 549.756 572.389 550.176 571.753 550.476C571.129 550.776 570.409 550.926 569.593 550.926C568.789 550.926 568.069 550.776 567.433 550.476C566.797 550.176 566.293 549.756 565.921 549.216C565.561 548.664 565.381 548.034 565.381 547.326C565.381 546.606 565.561 545.976 565.921 545.436C566.293 544.896 566.797 544.476 567.433 544.176C568.069 543.864 568.789 543.708 569.593 543.708ZM569.593 544.95C569.065 544.95 568.591 545.052 568.171 545.256C567.763 545.448 567.439 545.724 567.199 546.084C566.959 546.444 566.839 546.858 566.839 547.326C566.839 547.794 566.959 548.208 567.199 548.568C567.439 548.916 567.763 549.192 568.171 549.396C568.591 549.6 569.065 549.702 569.593 549.702C570.121 549.702 570.589 549.6 570.997 549.396C571.417 549.192 571.747 548.916 571.987 548.568C572.227 548.208 572.347 547.794 572.347 547.326C572.347 546.858 572.227 546.444 571.987 546.084C571.747 545.724 571.417 545.448 570.997 545.256C570.589 545.052 570.121 544.95 569.593 544.95ZM576.865 543.114H578.359V551.448H576.865V543.114ZM567.829 552.258H578.359V556.2H569.323V558.648H567.883V555.084H576.883V553.446H567.829V552.258ZM567.883 557.982H578.917V559.188H567.883V557.982ZM592.362 543.132H593.856V555.084H592.362V543.132ZM593.388 548.046H596.25V549.288H593.388V548.046ZM583.722 557.82H594.576V559.044H583.722V557.82ZM583.722 553.932H585.198V558.09H583.722V553.932ZM581.886 544.302H583.362V547.02H587.952V544.302H589.428V552.348H581.886V544.302ZM583.362 548.19V551.142H587.952V548.19H583.362ZM564.698 575.102H569.378V576.326H564.698V575.102ZM564.698 578.612H569.414V579.836H564.698V578.612ZM568.82 572.132H570.314V584.174H568.82V572.132ZM559.856 586.82H570.692V588.044H559.856V586.82ZM559.856 583.004H561.35V587.432H559.856V583.004ZM557.714 573.212H559.208V576.074H563.6V573.212H565.076V581.402H557.714V573.212ZM559.208 577.244V580.196H563.6V577.244H559.208ZM573.841 574.508H587.071V575.732H573.841V574.508ZM573.121 585.272H587.881V586.496H573.121V585.272ZM579.727 582.68H581.203V585.74H579.727V582.68ZM580.465 576.812C581.557 576.812 582.499 576.938 583.291 577.19C584.095 577.43 584.713 577.778 585.145 578.234C585.577 578.69 585.793 579.248 585.793 579.908C585.793 580.556 585.577 581.114 585.145 581.582C584.713 582.05 584.095 582.41 583.291 582.662C582.499 582.902 581.557 583.022 580.465 583.022C579.373 583.022 578.425 582.902 577.621 582.662C576.829 582.41 576.217 582.05 575.785 581.582C575.353 581.114 575.137 580.556 575.137 579.908C575.137 579.248 575.353 578.69 575.785 578.234C576.217 577.778 576.829 577.43 577.621 577.19C578.425 576.938 579.373 576.812 580.465 576.812ZM580.465 578C579.673 578 578.989 578.078 578.413 578.234C577.849 578.378 577.411 578.594 577.099 578.882C576.799 579.158 576.649 579.5 576.649 579.908C576.649 580.304 576.799 580.646 577.099 580.934C577.411 581.222 577.849 581.444 578.413 581.6C578.989 581.744 579.673 581.816 580.465 581.816C581.257 581.816 581.935 581.744 582.499 581.6C583.063 581.444 583.501 581.222 583.813 580.934C584.125 580.646 584.281 580.304 584.281 579.908C584.281 579.5 584.125 579.158 583.813 578.882C583.501 578.594 583.063 578.378 582.499 578.234C581.935 578.078 581.257 578 580.465 578ZM579.727 572.384H581.203V575.246H579.727V572.384ZM593.297 573.518H594.521V576.434C594.521 577.334 594.407 578.216 594.179 579.08C593.963 579.944 593.651 580.754 593.243 581.51C592.835 582.266 592.355 582.938 591.803 583.526C591.251 584.114 590.651 584.582 590.003 584.93L589.085 583.724C589.685 583.424 590.237 583.022 590.741 582.518C591.257 582.002 591.707 581.414 592.091 580.754C592.475 580.094 592.769 579.398 592.973 578.666C593.189 577.922 593.297 577.178 593.297 576.434V573.518ZM593.567 573.518H594.773V576.434C594.773 577.154 594.875 577.868 595.079 578.576C595.295 579.284 595.595 579.95 595.979 580.574C596.363 581.198 596.801 581.756 597.293 582.248C597.797 582.74 598.337 583.13 598.913 583.418L597.995 584.606C597.359 584.282 596.771 583.838 596.231 583.274C595.703 582.71 595.235 582.068 594.827 581.348C594.431 580.616 594.119 579.836 593.891 579.008C593.675 578.168 593.567 577.31 593.567 576.434V573.518ZM600.335 572.114H601.829V588.404H600.335V572.114ZM601.487 578.702H604.493V579.98H601.487V578.702Z" fill="#1F1E29"/>
<rect x="720" y="506" width="120" height="120" rx="60" fill="#8F8F8F"/>
<path d="M752.301 559.518H753.525V562.434C753.525 563.334 753.411 564.216 753.183 565.08C752.967 565.944 752.655 566.754 752.247 567.51C751.839 568.266 751.359 568.938 750.807 569.526C750.255 570.114 749.655 570.582 749.007 570.93L748.089 569.724C748.689 569.424 749.241 569.022 749.745 568.518C750.261 568.002 750.711 567.414 751.095 566.754C751.479 566.094 751.773 565.398 751.977 564.666C752.193 563.922 752.301 563.178 752.301 562.434V559.518ZM752.571 559.518H753.777V562.434C753.777 563.154 753.879 563.868 754.083 564.576C754.299 565.284 754.599 565.95 754.983 566.574C755.367 567.198 755.805 567.756 756.297 568.248C756.801 568.74 757.341 569.13 757.917 569.418L756.999 570.606C756.363 570.282 755.775 569.838 755.235 569.274C754.707 568.71 754.239 568.068 753.831 567.348C753.435 566.616 753.123 565.836 752.895 565.008C752.679 564.168 752.571 563.31 752.571 562.434V559.518ZM759.339 558.114H760.833V574.404H759.339V558.114ZM760.491 564.702H763.497V565.98H760.491V564.702ZM776.419 558.132H777.913V570.156H776.419V558.132ZM772.891 563.136H776.707V564.378H772.891V563.136ZM771.379 559.374H772.963C772.963 560.778 772.651 562.062 772.027 563.226C771.403 564.378 770.527 565.38 769.399 566.232C768.271 567.084 766.939 567.768 765.403 568.284L764.773 567.078C766.093 566.634 767.251 566.064 768.247 565.368C769.243 564.672 770.011 563.868 770.551 562.956C771.103 562.044 771.379 561.054 771.379 559.986V559.374ZM765.583 559.374H772.351V560.616H765.583V559.374ZM767.617 572.82H778.327V574.044H767.617V572.82ZM767.617 568.932H769.129V573.432H767.617V568.932ZM792.618 558.114H794.112V574.422H792.618V558.114ZM789.126 564.648H793.05V565.872H789.126V564.648ZM784.86 561.984H786.048V563.388C786.048 564.24 785.94 565.074 785.724 565.89C785.508 566.694 785.196 567.444 784.788 568.14C784.38 568.836 783.906 569.454 783.366 569.994C782.826 570.522 782.232 570.942 781.584 571.254L780.756 570.102C781.344 569.814 781.89 569.436 782.394 568.968C782.898 568.5 783.336 567.966 783.708 567.366C784.08 566.766 784.362 566.13 784.554 565.458C784.758 564.774 784.86 564.084 784.86 563.388V561.984ZM785.148 561.984H786.336V563.388C786.336 564.06 786.438 564.72 786.642 565.368C786.858 566.004 787.152 566.61 787.524 567.186C787.896 567.762 788.334 568.278 788.838 568.734C789.354 569.178 789.912 569.538 790.512 569.814L789.684 570.966C789.024 570.666 788.418 570.258 787.866 569.742C787.314 569.226 786.834 568.638 786.426 567.978C786.018 567.306 785.7 566.58 785.472 565.8C785.256 565.02 785.148 564.216 785.148 563.388V561.984ZM781.188 560.94H789.954V562.146H781.188V560.94ZM784.86 558.42H786.354V561.606H784.86V558.42ZM808.781 558.114H810.257V574.422H808.781V558.114ZM797.855 569.238H799.205C800.129 569.238 801.017 569.226 801.869 569.202C802.733 569.166 803.603 569.106 804.479 569.022C805.367 568.938 806.291 568.818 807.251 568.662L807.395 569.886C805.931 570.126 804.551 570.288 803.255 570.372C801.959 570.444 800.609 570.48 799.205 570.48H797.855V569.238ZM797.819 559.626H805.343V565.44H799.367V569.706H797.855V564.234H803.831V560.85H797.819V559.626Z" fill="white"/>
</svg>
