<svg width="103" height="102" viewBox="0 0 103 102" fill="none" xmlns="http://www.w3.org/2000/svg">
<g filter="url(#filter0_d_18_329)">
<rect x="11" y="5.5" width="71" height="71" rx="35.5" stroke="white" stroke-dasharray="4 4" shape-rendering="crispEdges"/>
<path d="M43.6591 34.422H44.8211V47.106H43.6591V34.422ZM38.1431 35.402C38.7684 35.402 39.3191 35.584 39.7951 35.948C40.2804 36.3027 40.6584 36.8113 40.9291 37.474C41.2091 38.1367 41.3491 38.916 41.3491 39.812C41.3491 40.708 41.2091 41.4873 40.9291 42.15C40.6584 42.8127 40.2804 43.326 39.7951 43.69C39.3191 44.054 38.7684 44.236 38.1431 44.236C37.5178 44.236 36.9624 44.054 36.4771 43.69C35.9918 43.326 35.6091 42.8127 35.3291 42.15C35.0584 41.4873 34.9231 40.708 34.9231 39.812C34.9231 38.916 35.0584 38.1367 35.3291 37.474C35.6091 36.8113 35.9918 36.3027 36.4771 35.948C36.9624 35.584 37.5178 35.402 38.1431 35.402ZM38.1431 36.438C37.7231 36.438 37.3544 36.578 37.0371 36.858C36.7291 37.1287 36.4864 37.5207 36.3091 38.034C36.1318 38.538 36.0431 39.1307 36.0431 39.812C36.0431 40.4933 36.1318 41.0907 36.3091 41.604C36.4864 42.108 36.7291 42.5 37.0371 42.78C37.3544 43.06 37.7231 43.2 38.1431 43.2C38.5538 43.2 38.9131 43.06 39.2211 42.78C39.5384 42.5 39.7858 42.108 39.9631 41.604C40.1404 41.0907 40.2291 40.4933 40.2291 39.812C40.2291 39.1307 40.1404 38.538 39.9631 38.034C39.7858 37.5207 39.5384 37.1287 39.2211 36.858C38.9131 36.578 38.5538 36.438 38.1431 36.438ZM47.06 41.898H58.498V42.822H47.06V41.898ZM52.198 40.554H53.36V42.304H52.198V40.554ZM48.53 45.874H57.224V46.812H48.53V45.874ZM48.53 43.648H49.692V46.378H48.53V43.648ZM47.662 35.598H57.84V36.494H47.662V35.598ZM52.772 37.054C54.0693 37.054 55.0727 37.2173 55.782 37.544C56.5007 37.8707 56.86 38.3467 56.86 38.972C56.86 39.5973 56.5007 40.078 55.782 40.414C55.0727 40.7407 54.0693 40.904 52.772 40.904C51.4747 40.904 50.4667 40.7407 49.748 40.414C49.0387 40.078 48.684 39.5973 48.684 38.972C48.684 38.3467 49.0387 37.8707 49.748 37.544C50.4667 37.2173 51.4747 37.054 52.772 37.054ZM52.772 37.894C51.8387 37.894 51.12 37.9873 50.616 38.174C50.112 38.3513 49.86 38.6173 49.86 38.972C49.86 39.3267 50.112 39.5973 50.616 39.784C51.12 39.9613 51.8387 40.05 52.772 40.05C53.7053 40.05 54.424 39.9613 54.928 39.784C55.432 39.5973 55.684 39.3267 55.684 38.972C55.684 38.6173 55.432 38.3513 54.928 38.174C54.424 37.9873 53.7053 37.894 52.772 37.894ZM52.198 34.282H53.36V36.102H52.198V34.282Z" fill="white"/>
</g>
<defs>
<filter id="filter0_d_18_329" x="-52.5" y="-58" width="198" height="198" filterUnits="userSpaceOnUse" color-interpolation-filters="sRGB">
<feFlood flood-opacity="0" result="BackgroundImageFix"/>
<feColorMatrix in="SourceAlpha" type="matrix" values="0 0 0 0 0 0 0 0 0 0 0 0 0 0 0 0 0 0 127 0" result="hardAlpha"/>
<feOffset dx="5" dy="10"/>
<feGaussianBlur stdDeviation="7.5"/>
<feComposite in2="hardAlpha" operator="out"/>
<feColorMatrix type="matrix" values="0 0 0 0 0.560784 0 0 0 0 0.627451 0 0 0 0 0.733333 0 0 0 0.15 0"/>
<feBlend mode="normal" in2="BackgroundImageFix" result="effect1_dropShadow_18_329"/>
<feBlend mode="normal" in="SourceGraphic" in2="effect1_dropShadow_18_329" result="shape"/>
</filter>
</defs>
</svg>
