<svg width="343" height="674" viewBox="0 0 343 674" fill="none" xmlns="http://www.w3.org/2000/svg">
<path d="M171.009 14.574C171.009 15.606 170.925 16.53 170.757 17.346C170.601 18.162 170.343 18.858 169.983 19.434C169.635 19.998 169.173 20.43 168.597 20.73C168.033 21.03 167.337 21.18 166.509 21.18C165.477 21.18 164.631 20.916 163.971 20.388C163.311 19.86 162.819 19.104 162.495 18.12C162.183 17.136 162.027 15.954 162.027 14.574C162.027 13.182 162.171 11.994 162.459 11.01C162.747 10.026 163.221 9.27 163.881 8.742C164.541 8.214 165.417 7.95 166.509 7.95C167.541 7.95 168.387 8.214 169.047 8.742C169.707 9.258 170.199 10.014 170.523 11.01C170.847 11.994 171.009 13.182 171.009 14.574ZM164.727 14.574C164.727 15.546 164.781 16.362 164.889 17.022C164.997 17.67 165.177 18.162 165.429 18.498C165.693 18.822 166.053 18.984 166.509 18.984C166.965 18.984 167.319 18.822 167.571 18.498C167.835 18.174 168.021 17.688 168.129 17.04C168.249 16.38 168.309 15.558 168.309 14.574C168.309 13.59 168.249 12.774 168.129 12.126C168.021 11.466 167.835 10.974 167.571 10.65C167.319 10.314 166.965 10.146 166.509 10.146C166.053 10.146 165.693 10.314 165.429 10.65C165.177 10.974 164.997 11.466 164.889 12.126C164.781 12.774 164.727 13.59 164.727 14.574ZM178.754 21H176.036V13.566C176.036 13.362 176.036 13.11 176.036 12.81C176.048 12.51 176.06 12.198 176.072 11.874C176.084 11.55 176.096 11.262 176.108 11.01C176.048 11.082 175.916 11.214 175.712 11.406C175.52 11.586 175.34 11.748 175.172 11.892L173.696 13.08L172.382 11.442L176.522 8.148H178.754V21Z" fill="#397BF4"/>
<path d="M62.5484 58.832C63.6204 58.832 64.5644 59.144 65.3804 59.768C66.1964 60.376 66.8364 61.248 67.3004 62.384C67.7644 63.52 67.9964 64.856 67.9964 66.392C67.9964 67.928 67.7644 69.264 67.3004 70.4C66.8364 71.536 66.1964 72.416 65.3804 73.04C64.5644 73.664 63.6204 73.976 62.5484 73.976C61.4924 73.976 60.5484 73.664 59.7164 73.04C58.9004 72.416 58.2604 71.536 57.7964 70.4C57.3324 69.264 57.1004 67.928 57.1004 66.392C57.1004 64.856 57.3324 63.52 57.7964 62.384C58.2604 61.248 58.9004 60.376 59.7164 59.768C60.5484 59.144 61.4924 58.832 62.5484 58.832ZM62.5484 60.608C61.8604 60.608 61.2444 60.848 60.7004 61.328C60.1724 61.792 59.7564 62.464 59.4524 63.344C59.1484 64.208 58.9964 65.224 58.9964 66.392C58.9964 67.56 59.1484 68.584 59.4524 69.464C59.7564 70.328 60.1724 71 60.7004 71.48C61.2444 71.96 61.8684 72.2 62.5724 72.2C63.2604 72.2 63.8684 71.96 64.3964 71.48C64.9404 71 65.3564 70.328 65.6444 69.464C65.9484 68.584 66.1004 67.56 66.1004 66.392C66.1004 65.224 65.9484 64.208 65.6444 63.344C65.3564 62.464 64.9404 61.792 64.3964 61.328C63.8684 60.848 63.2524 60.608 62.5484 60.608ZM71.4764 57.152H73.4684V78.872H71.4764V57.152ZM73.0124 65.816H77.0204V67.496H73.0124V65.816ZM78.3626 69.752H98.0426V71.384H78.3626V69.752ZM87.1706 70.76H89.1386V78.848H87.1706V70.76ZM80.8826 58.352H95.5226V66.824H80.8826V58.352ZM93.5546 59.96H82.8266V65.24H93.5546V59.96ZM115.801 57.152H117.769V78.896H115.801V57.152ZM101.233 71.984H103.033C104.265 71.984 105.449 71.968 106.585 71.936C107.737 71.888 108.897 71.808 110.065 71.696C111.249 71.584 112.481 71.424 113.761 71.216L113.953 72.848C112.001 73.168 110.161 73.384 108.433 73.496C106.705 73.592 104.905 73.64 103.033 73.64H101.233V71.984ZM101.185 59.168H111.217V66.92H103.249V72.608H101.233V65.312H109.201V60.8H101.185V59.168ZM130.049 63.104H144.737V64.736H130.049V63.104ZM130.049 57.704H132.041V64.016H130.049V57.704ZM127.337 66.944H146.969V68.576H127.337V66.944ZM136.145 71.552H137.825V71.912C137.825 72.856 137.601 73.712 137.153 74.48C136.721 75.248 136.121 75.92 135.353 76.496C134.585 77.072 133.697 77.552 132.689 77.936C131.697 78.32 130.649 78.592 129.545 78.752L128.801 77.216C129.793 77.088 130.729 76.872 131.609 76.568C132.489 76.248 133.265 75.864 133.937 75.416C134.625 74.952 135.161 74.424 135.545 73.832C135.945 73.24 136.145 72.6 136.145 71.912V71.552ZM136.481 71.552H138.185V71.912C138.185 72.6 138.377 73.24 138.761 73.832C139.161 74.424 139.697 74.952 140.369 75.416C141.057 75.864 141.841 76.248 142.721 76.568C143.601 76.872 144.537 77.088 145.529 77.216L144.785 78.752C143.681 78.592 142.625 78.32 141.617 77.936C140.625 77.552 139.737 77.072 138.953 76.496C138.185 75.92 137.577 75.248 137.129 74.48C136.697 73.712 136.481 72.856 136.481 71.912V71.552ZM129.665 70.856H144.665V72.464H129.665V70.856ZM154.719 58.832C155.775 58.832 156.711 59.144 157.527 59.768C158.343 60.376 158.975 61.248 159.423 62.384C159.887 63.52 160.119 64.856 160.119 66.392C160.119 67.928 159.887 69.264 159.423 70.4C158.975 71.536 158.343 72.416 157.527 73.04C156.711 73.664 155.775 73.976 154.719 73.976C153.679 73.976 152.743 73.664 151.911 73.04C151.095 72.416 150.455 71.536 149.991 70.4C149.543 69.264 149.319 67.928 149.319 66.392C149.319 64.856 149.543 63.52 149.991 62.384C150.455 61.248 151.095 60.376 151.911 59.768C152.743 59.144 153.679 58.832 154.719 58.832ZM154.719 60.608C154.031 60.608 153.423 60.848 152.895 61.328C152.367 61.792 151.951 62.464 151.647 63.344C151.359 64.208 151.215 65.224 151.215 66.392C151.215 67.56 151.359 68.584 151.647 69.464C151.951 70.328 152.367 71 152.895 71.48C153.423 71.96 154.031 72.2 154.719 72.2C155.423 72.2 156.039 71.96 156.567 71.48C157.095 71 157.503 70.328 157.791 69.464C158.095 68.584 158.247 67.56 158.247 66.392C158.247 65.224 158.095 64.208 157.791 63.344C157.503 62.464 157.095 61.792 156.567 61.328C156.039 60.848 155.423 60.608 154.719 60.608ZM164.823 57.152H166.791V78.896H164.823V57.152ZM159.471 65.432H165.711V67.04H159.471V65.432ZM173.029 67.304H187.933V68.912H173.029V67.304ZM170.533 74.48H190.213V76.136H170.533V74.48ZM179.341 68H181.309V75.128H179.341V68ZM173.029 58.88H187.717V60.536H175.021V68.024H173.029V58.88Z" fill="white"/>
<rect width="44" height="32" transform="translate(195.5 52)" fill="#397BF4"/>
<path d="M212.098 63.704C212.098 64.488 211.93 65.168 211.594 65.744C211.274 66.32 210.834 66.792 210.274 67.16C209.73 67.528 209.106 67.8 208.402 67.976V68.048C209.778 68.208 210.818 68.624 211.522 69.296C212.242 69.968 212.602 70.872 212.602 72.008C212.602 73 212.354 73.896 211.858 74.696C211.378 75.48 210.626 76.104 209.602 76.568C208.594 77.016 207.29 77.24 205.69 77.24C204.746 77.24 203.866 77.16 203.05 77C202.234 76.84 201.466 76.608 200.746 76.304V73.232C201.482 73.6 202.25 73.88 203.05 74.072C203.866 74.264 204.618 74.36 205.306 74.36C206.602 74.36 207.506 74.136 208.018 73.688C208.546 73.24 208.81 72.608 208.81 71.792C208.81 71.312 208.69 70.912 208.45 70.592C208.21 70.256 207.786 70.008 207.178 69.848C206.586 69.672 205.754 69.584 204.682 69.584H203.386V66.8H204.706C205.762 66.8 206.562 66.704 207.106 66.512C207.666 66.304 208.042 66.032 208.234 65.696C208.442 65.344 208.546 64.944 208.546 64.496C208.546 63.888 208.354 63.416 207.97 63.08C207.602 62.728 206.978 62.552 206.098 62.552C205.554 62.552 205.058 62.624 204.61 62.768C204.162 62.896 203.754 63.056 203.386 63.248C203.034 63.44 202.722 63.624 202.45 63.8L200.77 61.304C201.218 60.984 201.714 60.696 202.258 60.44C202.818 60.184 203.434 59.984 204.106 59.84C204.778 59.696 205.53 59.624 206.362 59.624C208.122 59.624 209.514 59.984 210.538 60.704C211.578 61.408 212.098 62.408 212.098 63.704ZM220.312 57.536C221.464 57.536 222.48 57.76 223.36 58.208C224.256 58.64 224.96 59.24 225.472 60.008C226 60.76 226.264 61.632 226.264 62.624C226.264 63.616 226 64.496 225.472 65.264C224.96 66.016 224.256 66.608 223.36 67.04C222.48 67.472 221.464 67.688 220.312 67.688C219.192 67.688 218.184 67.472 217.288 67.04C216.392 66.608 215.68 66.016 215.152 65.264C214.64 64.496 214.384 63.616 214.384 62.624C214.384 61.632 214.64 60.752 215.152 59.984C215.68 59.216 216.392 58.616 217.288 58.184C218.184 57.752 219.192 57.536 220.312 57.536ZM220.336 60.128C219.792 60.128 219.304 60.232 218.872 60.44C218.44 60.632 218.096 60.912 217.84 61.28C217.6 61.648 217.48 62.096 217.48 62.624C217.48 63.152 217.6 63.608 217.84 63.992C218.096 64.36 218.432 64.64 218.848 64.832C219.28 65.024 219.776 65.12 220.336 65.12C220.88 65.12 221.36 65.024 221.776 64.832C222.208 64.64 222.544 64.36 222.784 63.992C223.04 63.608 223.168 63.152 223.168 62.624C223.168 62.096 223.04 61.648 222.784 61.28C222.544 60.912 222.208 60.632 221.776 60.44C221.344 60.232 220.864 60.128 220.336 60.128ZM229.336 56.912H232.528V68.024H229.336V56.912ZM217.72 68.936H232.528V75.008H220.888V77.72H217.744V72.704H229.36V71.384H217.72V68.936ZM217.744 76.4H233.08V78.896H217.744V76.4Z" fill="white"/>
<path d="M260.63 57.152H262.622V78.896H260.63V57.152ZM251.174 58.832C252.246 58.832 253.19 59.144 254.006 59.768C254.838 60.376 255.486 61.248 255.95 62.384C256.43 63.52 256.67 64.856 256.67 66.392C256.67 67.928 256.43 69.264 255.95 70.4C255.486 71.536 254.838 72.416 254.006 73.04C253.19 73.664 252.246 73.976 251.174 73.976C250.102 73.976 249.15 73.664 248.318 73.04C247.486 72.416 246.83 71.536 246.35 70.4C245.886 69.264 245.654 67.928 245.654 66.392C245.654 64.856 245.886 63.52 246.35 62.384C246.83 61.248 247.486 60.376 248.318 59.768C249.15 59.144 250.102 58.832 251.174 58.832ZM251.174 60.608C250.454 60.608 249.822 60.848 249.278 61.328C248.75 61.792 248.334 62.464 248.03 63.344C247.726 64.208 247.574 65.224 247.574 66.392C247.574 67.56 247.726 68.584 248.03 69.464C248.334 70.328 248.75 71 249.278 71.48C249.822 71.96 250.454 72.2 251.174 72.2C251.878 72.2 252.494 71.96 253.022 71.48C253.566 71 253.99 70.328 254.294 69.464C254.598 68.584 254.75 67.56 254.75 66.392C254.75 65.224 254.598 64.208 254.294 63.344C253.99 62.464 253.566 61.792 253.022 61.328C252.494 60.848 251.878 60.608 251.174 60.608ZM282.924 57.152H284.844V78.872H282.924V57.152ZM279.3 65.984H283.476V67.64H279.3V65.984ZM278.004 57.632H279.876V77.744H278.004V57.632ZM267.516 59.768H269.508V72.296H267.516V59.768ZM267.516 71.504H268.884C270.02 71.504 271.212 71.464 272.46 71.384C273.708 71.288 275.036 71.096 276.444 70.808L276.684 72.56C275.212 72.848 273.836 73.04 272.556 73.136C271.276 73.216 270.052 73.256 268.884 73.256H267.516V71.504Z" fill="white"/>
<path d="M63.3389 94.912H66.5309V111.112H63.3389V94.912ZM51.7229 114.184H67.1069V116.752H51.7229V114.184ZM51.7229 109.552H54.9149V115.504H51.7229V109.552ZM53.2829 96.136H55.9229V98.296C55.9229 99.736 55.6909 101.112 55.2269 102.424C54.7789 103.736 54.0909 104.888 53.1629 105.88C52.2349 106.872 51.0509 107.624 49.6109 108.136L47.9789 105.592C49.2269 105.16 50.2349 104.56 51.0029 103.792C51.7869 103.024 52.3629 102.16 52.7309 101.2C53.0989 100.24 53.2829 99.272 53.2829 98.296V96.136ZM53.9309 96.136H56.5229V98.296C56.5229 99.016 56.6189 99.728 56.8109 100.432C57.0189 101.12 57.3309 101.776 57.7469 102.4C58.1629 103.008 58.6989 103.56 59.3549 104.056C60.0109 104.552 60.7869 104.944 61.6829 105.232L60.0749 107.752C58.6669 107.288 57.5069 106.584 56.5949 105.64C55.6829 104.696 55.0109 103.592 54.5789 102.328C54.1469 101.064 53.9309 99.72 53.9309 98.296V96.136ZM74.6411 98.8H77.2331V99.592C77.2331 100.888 77.0091 102.112 76.5611 103.264C76.1131 104.416 75.4251 105.416 74.4971 106.264C73.5851 107.112 72.4251 107.744 71.0171 108.16L69.5051 105.688C70.7051 105.336 71.6811 104.848 72.4331 104.224C73.2011 103.584 73.7611 102.864 74.1131 102.064C74.4651 101.248 74.6411 100.424 74.6411 99.592V98.8ZM75.2411 98.8H77.8331V99.592C77.8331 100.168 77.9291 100.736 78.1211 101.296C78.3291 101.856 78.6411 102.384 79.0571 102.88C79.4891 103.376 80.0331 103.816 80.6891 104.2C81.3451 104.584 82.1131 104.896 82.9931 105.136L81.5531 107.632C80.1451 107.248 78.9691 106.664 78.0251 105.88C77.0971 105.08 76.4011 104.136 75.9371 103.048C75.4731 101.96 75.2411 100.808 75.2411 99.592V98.8ZM70.2731 97.192H82.2251V99.712H70.2731V97.192ZM74.6411 94.816H77.8331V98.2H74.6411V94.816ZM81.6011 100.816H85.8251V103.384H81.6011V100.816ZM85.0571 94.912H88.2731V108.328H85.0571V94.912ZM80.7371 108.688C83.0891 108.688 84.9451 109.056 86.3051 109.792C87.6651 110.528 88.3451 111.568 88.3451 112.912C88.3451 114.24 87.6651 115.272 86.3051 116.008C84.9451 116.76 83.0891 117.136 80.7371 117.136C78.3851 117.136 76.5291 116.76 75.1691 116.008C73.8091 115.272 73.1291 114.24 73.1291 112.912C73.1291 111.568 73.8091 110.528 75.1691 109.792C76.5291 109.056 78.3851 108.688 80.7371 108.688ZM80.7371 111.136C79.7771 111.136 78.9611 111.2 78.2891 111.328C77.6331 111.456 77.1371 111.656 76.8011 111.928C76.4651 112.184 76.2971 112.512 76.2971 112.912C76.2971 113.296 76.4651 113.624 76.8011 113.896C77.1371 114.168 77.6331 114.368 78.2891 114.496C78.9611 114.624 79.7771 114.688 80.7371 114.688C81.7131 114.688 82.5291 114.624 83.1851 114.496C83.8411 114.368 84.3291 114.168 84.6491 113.896C84.9851 113.624 85.1531 113.296 85.1531 112.912C85.1531 112.512 84.9851 112.184 84.6491 111.928C84.3291 111.656 83.8411 111.456 83.1851 111.328C82.5291 111.2 81.7131 111.136 80.7371 111.136ZM102.479 101.848H108.335V104.416H102.479V101.848ZM96.4312 96.592H98.9992V99.832C98.9992 101.224 98.8792 102.576 98.6392 103.888C98.3992 105.2 98.0312 106.424 97.5352 107.56C97.0392 108.696 96.4072 109.696 95.6392 110.56C94.8872 111.424 93.9912 112.12 92.9512 112.648L90.9592 110.104C91.9032 109.656 92.7112 109.072 93.3832 108.352C94.0712 107.632 94.6392 106.816 95.0872 105.904C95.5512 104.976 95.8872 104 96.0952 102.976C96.3192 101.936 96.4312 100.888 96.4312 99.832V96.592ZM97.0792 96.592H99.6232V99.832C99.6232 100.872 99.7272 101.904 99.9352 102.928C100.143 103.936 100.455 104.88 100.871 105.76C101.303 106.64 101.855 107.424 102.527 108.112C103.199 108.784 103.999 109.328 104.927 109.744L103.007 112.288C101.967 111.776 101.071 111.104 100.319 110.272C99.5672 109.424 98.9512 108.456 98.4712 107.368C98.0072 106.28 97.6552 105.096 97.4152 103.816C97.1912 102.536 97.0792 101.208 97.0792 99.832V96.592ZM106.727 94.864H109.919V117.16H106.727V94.864ZM130.273 99.88H134.473V102.448H130.273V99.88ZM133.633 94.912H136.825V107.056H133.633V94.912ZM122.089 107.944H125.257V109.984H133.681V107.944H136.825V116.896H122.089V107.944ZM125.257 112.432V114.328H133.681V112.432H125.257ZM123.385 96.616H125.977V98.032C125.977 99.424 125.753 100.752 125.305 102.016C124.857 103.28 124.169 104.384 123.241 105.328C122.329 106.272 121.153 106.984 119.713 107.464L118.129 104.944C119.041 104.624 119.825 104.224 120.481 103.744C121.153 103.264 121.697 102.712 122.113 102.088C122.545 101.464 122.865 100.808 123.073 100.12C123.281 99.432 123.385 98.736 123.385 98.032V96.616ZM124.057 96.616H126.601V98.008C126.601 98.872 126.777 99.736 127.129 100.6C127.481 101.448 128.025 102.216 128.761 102.904C129.513 103.592 130.473 104.136 131.641 104.536L130.081 107.032C128.705 106.568 127.569 105.88 126.673 104.968C125.793 104.056 125.137 103 124.705 101.8C124.273 100.6 124.057 99.336 124.057 98.008V96.616ZM118.993 95.92H130.945V98.44H118.993V95.92ZM148.223 95.536H151.007V96.592C151.007 97.44 150.871 98.264 150.599 99.064C150.343 99.848 149.959 100.584 149.447 101.272C148.935 101.96 148.311 102.576 147.575 103.12C146.839 103.664 145.983 104.128 145.007 104.512C144.047 104.88 142.991 105.16 141.839 105.352L140.591 102.784C141.615 102.656 142.527 102.44 143.327 102.136C144.143 101.832 144.855 101.472 145.463 101.056C146.087 100.64 146.599 100.184 146.999 99.688C147.399 99.192 147.703 98.68 147.911 98.152C148.119 97.624 148.223 97.104 148.223 96.592V95.536ZM148.823 95.536H151.607V96.592C151.607 97.104 151.711 97.624 151.919 98.152C152.127 98.68 152.431 99.192 152.831 99.688C153.231 100.184 153.735 100.64 154.343 101.056C154.967 101.472 155.679 101.832 156.479 102.136C157.295 102.44 158.215 102.656 159.239 102.784L157.991 105.352C156.823 105.16 155.759 104.88 154.799 104.512C153.839 104.128 152.991 103.664 152.255 103.12C151.519 102.56 150.895 101.936 150.383 101.248C149.871 100.56 149.479 99.824 149.207 99.04C148.951 98.256 148.823 97.44 148.823 96.592V95.536ZM148.223 108.976H151.415V117.136H148.223V108.976ZM139.847 106.96H159.959V109.552H139.847V106.96ZM161.445 104.872H181.557V107.176H161.445V104.872ZM163.701 108.304H179.181V113.584H166.893V115.48H163.725V111.568H176.037V110.464H163.701V108.304ZM163.725 114.784H179.805V116.944H163.725V114.784ZM163.893 95.272H179.109V100.528H167.085V102.328H163.941V98.512H175.965V97.432H163.893V95.272ZM163.941 101.68H179.517V103.84H163.941V101.68ZM188.422 111.952H208.558V114.544H188.422V111.952ZM196.87 107.2H200.038V112.576H196.87V107.2ZM190.534 96.304H193.726V99.736H203.182V96.304H206.35V107.872H190.534V96.304ZM193.726 102.232V105.328H203.182V102.232H193.726ZM214.965 97.384H217.581V98.776C217.581 100.184 217.349 101.52 216.885 102.784C216.437 104.048 215.749 105.16 214.821 106.12C213.893 107.064 212.717 107.768 211.293 108.232L209.709 105.712C210.925 105.312 211.917 104.752 212.685 104.032C213.469 103.296 214.045 102.472 214.413 101.56C214.781 100.632 214.965 99.704 214.965 98.776V97.384ZM215.613 97.384H218.181V98.776C218.181 99.64 218.357 100.48 218.709 101.296C219.061 102.096 219.605 102.816 220.341 103.456C221.093 104.096 222.069 104.6 223.269 104.968L221.733 107.464C220.325 107.048 219.165 106.408 218.253 105.544C217.357 104.664 216.693 103.648 216.261 102.496C215.829 101.328 215.613 100.088 215.613 98.776V97.384ZM210.525 96.376H222.549V98.92H210.525V96.376ZM224.301 94.912H227.493V108.088H224.301V94.912ZM226.629 100H230.445V102.616H226.629V100ZM220.245 108.472C221.797 108.472 223.133 108.648 224.253 109C225.373 109.336 226.237 109.824 226.845 110.464C227.453 111.104 227.757 111.88 227.757 112.792C227.757 113.704 227.453 114.48 226.845 115.12C226.237 115.776 225.373 116.272 224.253 116.608C223.133 116.96 221.797 117.136 220.245 117.136C218.709 117.136 217.373 116.96 216.237 116.608C215.117 116.272 214.245 115.776 213.621 115.12C213.013 114.48 212.709 113.704 212.709 112.792C212.709 111.88 213.013 111.104 213.621 110.464C214.245 109.824 215.117 109.336 216.237 109C217.373 108.648 218.709 108.472 220.245 108.472ZM220.245 110.968C219.301 110.968 218.509 111.032 217.869 111.16C217.229 111.288 216.741 111.488 216.405 111.76C216.069 112.032 215.901 112.376 215.901 112.792C215.901 113.224 216.069 113.576 216.405 113.848C216.741 114.12 217.229 114.328 217.869 114.472C218.509 114.6 219.301 114.664 220.245 114.664C221.189 114.664 221.981 114.6 222.621 114.472C223.277 114.328 223.765 114.12 224.085 113.848C224.421 113.576 224.589 113.224 224.589 112.792C224.589 112.376 224.421 112.032 224.085 111.76C223.765 111.488 223.277 111.288 222.621 111.16C221.981 111.032 221.189 110.968 220.245 110.968ZM246.691 95.152H248.683V107.776H246.691V95.152ZM247.819 100.696H251.875V102.376H247.819V100.696ZM235.027 108.736H236.995V111.016H246.691V108.736H248.683V116.584H235.027V108.736ZM236.995 112.576V114.976H246.691V112.576H236.995ZM231.883 97.384H244.699V98.992H231.883V97.384ZM238.291 100C239.331 100 240.235 100.16 241.003 100.48C241.787 100.784 242.395 101.224 242.827 101.8C243.259 102.36 243.475 103.024 243.475 103.792C243.475 104.56 243.259 105.232 242.827 105.808C242.395 106.384 241.787 106.832 241.003 107.152C240.235 107.456 239.331 107.608 238.291 107.608C237.251 107.608 236.339 107.456 235.555 107.152C234.787 106.832 234.179 106.384 233.731 105.808C233.299 105.232 233.083 104.56 233.083 103.792C233.083 103.024 233.299 102.36 233.731 101.8C234.179 101.224 234.787 100.784 235.555 100.48C236.339 100.16 237.251 100 238.291 100ZM238.291 101.512C237.299 101.512 236.499 101.72 235.891 102.136C235.299 102.552 235.003 103.104 235.003 103.792C235.003 104.496 235.299 105.056 235.891 105.472C236.499 105.888 237.299 106.096 238.291 106.096C239.267 106.096 240.059 105.888 240.667 105.472C241.275 105.056 241.579 104.496 241.579 103.792C241.579 103.104 241.275 102.552 240.667 102.136C240.075 101.72 239.283 101.512 238.291 101.512ZM237.307 94.96H239.299V98.248H237.307V94.96ZM269.225 95.152H271.193V116.872H269.225V95.152ZM254.801 97.288H256.769V110.728H254.801V97.288ZM254.801 109.552H256.577C258.241 109.552 259.929 109.48 261.641 109.336C263.369 109.176 265.145 108.912 266.969 108.544L267.233 110.224C265.345 110.624 263.529 110.904 261.785 111.064C260.041 111.208 258.305 111.28 256.577 111.28H254.801V109.552ZM289.719 95.152H291.711V116.896H289.719V95.152ZM291.255 103.72H295.263V105.376H291.255V103.72ZM275.967 109.792H277.671C278.999 109.792 280.215 109.776 281.319 109.744C282.439 109.696 283.511 109.616 284.535 109.504C285.575 109.392 286.631 109.24 287.703 109.048L287.943 110.752C286.823 110.944 285.735 111.096 284.679 111.208C283.639 111.32 282.551 111.392 281.415 111.424C280.279 111.456 279.031 111.472 277.671 111.472H275.967V109.792ZM275.967 97.264H286.023V98.896H277.935V110.56H275.967V97.264Z" fill="white"/>
<rect y="145" width="167.5" height="529" rx="16" fill="white"/>
<path d="M58.3528 191.888H60.4228V193.094C60.4228 193.814 60.3208 194.516 60.1168 195.2C59.9248 195.872 59.6368 196.508 59.2528 197.108C58.8688 197.708 58.3948 198.254 57.8308 198.746C57.2788 199.226 56.6428 199.64 55.9228 199.988C55.2028 200.336 54.4108 200.594 53.5468 200.762L52.5208 198.764C53.2648 198.632 53.9428 198.434 54.5548 198.17C55.1788 197.894 55.7248 197.564 56.1928 197.18C56.6608 196.796 57.0568 196.382 57.3808 195.938C57.7048 195.482 57.9448 195.014 58.1008 194.534C58.2688 194.042 58.3528 193.562 58.3528 193.094V191.888ZM58.8208 191.888H60.9088V193.094C60.9088 193.574 60.9868 194.06 61.1428 194.552C61.3108 195.044 61.5508 195.518 61.8628 195.974C62.1868 196.418 62.5828 196.826 63.0508 197.198C63.5188 197.57 64.0588 197.894 64.6708 198.17C65.2828 198.434 65.9728 198.632 66.7408 198.764L65.7148 200.762C64.8508 200.594 64.0588 200.336 63.3388 199.988C62.6188 199.64 61.9768 199.226 61.4128 198.746C60.8608 198.266 60.3868 197.726 59.9908 197.126C59.6068 196.526 59.3128 195.884 59.1088 195.2C58.9168 194.516 58.8208 193.814 58.8208 193.094V191.888ZM52.1608 203.606H67.2628V205.568H52.1608V203.606ZM68.9174 198.998H70.0694C70.8734 198.998 71.5934 198.992 72.2294 198.98C72.8774 198.968 73.4894 198.938 74.0654 198.89C74.6414 198.83 75.2354 198.746 75.8474 198.638L76.0634 200.546C75.4274 200.642 74.8094 200.72 74.2094 200.78C73.6094 200.84 72.9734 200.882 72.3014 200.906C71.6414 200.918 70.8974 200.924 70.0694 200.924H68.9174V198.998ZM68.9174 192.23H75.4694V194.138H71.2214V199.772H68.9174V192.23ZM70.5374 195.632H75.3074V197.45H70.5374V195.632ZM80.2754 190.916H82.5614V203.336H80.2754V190.916ZM78.2414 195.524H80.8874V197.45H78.2414V195.524ZM76.7294 191.222H78.9614V202.994H76.7294V191.222ZM71.3294 205.388H82.9754V207.314H71.3294V205.388ZM71.3294 201.968H73.7414V206.63H71.3294V201.968ZM95.196 190.898H97.608V207.62H95.196V190.898ZM97.086 197.072H100.02V199.052H97.086V197.072ZM85.188 201.644H86.592C87.54 201.644 88.428 201.632 89.256 201.608C90.084 201.572 90.888 201.518 91.668 201.446C92.448 201.362 93.246 201.248 94.062 201.104L94.296 203.084C93.456 203.228 92.628 203.342 91.812 203.426C91.008 203.51 90.18 203.564 89.328 203.588C88.476 203.612 87.564 203.624 86.592 203.624H85.188V201.644ZM85.188 192.446H92.964V194.372H87.582V202.58H85.188V192.446ZM102.521 198.62H114.239V200.51H102.521V198.62ZM100.757 203.642H115.859V205.586H100.757V203.642ZM102.521 192.284H114.113V194.228H104.897V199.412H102.521V192.284Z" fill="#0014C0"/>
<rect x="45" y="235" width="78" height="78" rx="39" fill="white" stroke="#397BF4" stroke-width="2"/>
<path d="M82.0931 256.422H83.1991V269.092H82.0931V256.422ZM79.9511 261.504H82.3871V262.456H79.9511V261.504ZM79.2231 256.702H80.3011V268.434H79.2231V256.702ZM72.9091 264.99H73.7351C74.3604 264.99 74.9251 264.985 75.4291 264.976C75.9424 264.957 76.4278 264.92 76.8851 264.864C77.3518 264.808 77.8278 264.729 78.3131 264.626L78.4251 265.592C77.9211 265.695 77.4311 265.774 76.9551 265.83C76.4884 265.886 75.9938 265.923 75.4711 265.942C74.9578 265.961 74.3791 265.97 73.7351 265.97H72.9091V264.99ZM72.9091 257.962H77.6131V258.914H74.0711V265.438H72.9091V257.962ZM88.238 263.282H89.4V266.894H88.238V263.282ZM92.13 263.296H93.292V266.908H92.13V263.296ZM85.06 266.586H96.54V267.552H85.06V266.586ZM86.068 257.598H95.462V258.55H86.068V257.598ZM86.096 262.652H95.434V263.604H86.096V262.652ZM88.028 258.368H89.19V262.848H88.028V258.368ZM92.34 258.368H93.488V262.848H92.34V258.368ZM72.2096 280.746H75.8496V281.698H72.2096V280.746ZM72.2096 283.476H75.8776V284.428H72.2096V283.476ZM75.4156 278.436H76.5776V287.802H75.4156V278.436ZM68.4436 289.86H76.8716V290.812H68.4436V289.86ZM68.4436 286.892H69.6056V290.336H68.4436V286.892ZM66.7776 279.276H67.9396V281.502H71.3556V279.276H72.5036V285.646H66.7776V279.276ZM67.9396 282.412V284.708H71.3556V282.412H67.9396ZM79.3205 280.284H89.6105V281.236H79.3205V280.284ZM78.7605 288.656H90.2405V289.608H78.7605V288.656ZM83.8985 286.64H85.0465V289.02H83.8985V286.64ZM84.4725 282.076C85.3219 282.076 86.0545 282.174 86.6705 282.37C87.2959 282.557 87.7765 282.827 88.1125 283.182C88.4485 283.537 88.6165 283.971 88.6165 284.484C88.6165 284.988 88.4485 285.422 88.1125 285.786C87.7765 286.15 87.2959 286.43 86.6705 286.626C86.0545 286.813 85.3219 286.906 84.4725 286.906C83.6232 286.906 82.8859 286.813 82.2605 286.626C81.6445 286.43 81.1685 286.15 80.8325 285.786C80.4965 285.422 80.3285 284.988 80.3285 284.484C80.3285 283.971 80.4965 283.537 80.8325 283.182C81.1685 282.827 81.6445 282.557 82.2605 282.37C82.8859 282.174 83.6232 282.076 84.4725 282.076ZM84.4725 283C83.8565 283 83.3245 283.061 82.8765 283.182C82.4379 283.294 82.0972 283.462 81.8545 283.686C81.6212 283.901 81.5045 284.167 81.5045 284.484C81.5045 284.792 81.6212 285.058 81.8545 285.282C82.0972 285.506 82.4379 285.679 82.8765 285.8C83.3245 285.912 83.8565 285.968 84.4725 285.968C85.0885 285.968 85.6159 285.912 86.0545 285.8C86.4932 285.679 86.8339 285.506 87.0765 285.282C87.3192 285.058 87.4405 284.792 87.4405 284.484C87.4405 284.167 87.3192 283.901 87.0765 283.686C86.8339 283.462 86.4932 283.294 86.0545 283.182C85.6159 283.061 85.0885 283 84.4725 283ZM83.8985 278.632H85.0465V280.858H83.8985V278.632ZM94.4535 279.514H95.4055V281.782C95.4055 282.482 95.3168 283.168 95.1395 283.84C94.9715 284.512 94.7288 285.142 94.4115 285.73C94.0941 286.318 93.7208 286.841 93.2915 287.298C92.8621 287.755 92.3955 288.119 91.8915 288.39L91.1775 287.452C91.6441 287.219 92.0735 286.906 92.4655 286.514C92.8668 286.113 93.2168 285.655 93.5155 285.142C93.8141 284.629 94.0428 284.087 94.2015 283.518C94.3695 282.939 94.4535 282.361 94.4535 281.782V279.514ZM94.6635 279.514H95.6015V281.782C95.6015 282.342 95.6808 282.897 95.8395 283.448C96.0075 283.999 96.2408 284.517 96.5395 285.002C96.8381 285.487 97.1788 285.921 97.5615 286.304C97.9535 286.687 98.3735 286.99 98.8215 287.214L98.1075 288.138C97.6128 287.886 97.1555 287.541 96.7355 287.102C96.3248 286.663 95.9608 286.164 95.6435 285.604C95.3355 285.035 95.0928 284.428 94.9155 283.784C94.7475 283.131 94.6635 282.463 94.6635 281.782V279.514ZM99.9275 278.422H101.089V291.092H99.9275V278.422ZM100.823 283.546H103.161V284.54H100.823V283.546Z" fill="#1F1E29"/>
<rect x="44" y="554" width="80" height="80" rx="40" fill="#0014C0"/>
<path d="M62.9562 588.514H63.9082V590.782C63.9082 591.482 63.8195 592.168 63.6422 592.84C63.4742 593.512 63.2315 594.142 62.9142 594.73C62.5969 595.318 62.2235 595.841 61.7942 596.298C61.3649 596.755 60.8982 597.119 60.3942 597.39L59.6802 596.452C60.1469 596.219 60.5762 595.906 60.9682 595.514C61.3695 595.113 61.7195 594.655 62.0182 594.142C62.3169 593.629 62.5455 593.087 62.7042 592.518C62.8722 591.939 62.9562 591.361 62.9562 590.782V588.514ZM63.1662 588.514H64.1042V590.782C64.1042 591.342 64.1835 591.897 64.3422 592.448C64.5102 592.999 64.7435 593.517 65.0422 594.002C65.3409 594.487 65.6815 594.921 66.0642 595.304C66.4562 595.687 66.8762 595.99 67.3242 596.214L66.6102 597.138C66.1155 596.886 65.6582 596.541 65.2382 596.102C64.8275 595.663 64.4635 595.164 64.1462 594.604C63.8382 594.035 63.5955 593.428 63.4182 592.784C63.2502 592.131 63.1662 591.463 63.1662 590.782V588.514ZM68.4302 587.422H69.5922V600.092H68.4302V587.422ZM69.3262 592.546H71.6642V593.54H69.3262V592.546ZM81.7151 587.436H82.8771V596.788H81.7151V587.436ZM78.9711 591.328H81.9391V592.294H78.9711V591.328ZM77.7951 588.402H79.0271C79.0271 589.494 78.7844 590.493 78.2991 591.398C77.8138 592.294 77.1324 593.073 76.2551 593.736C75.3778 594.399 74.3418 594.931 73.1471 595.332L72.6571 594.394C73.6838 594.049 74.5844 593.605 75.3591 593.064C76.1338 592.523 76.7311 591.897 77.1511 591.188C77.5804 590.479 77.7951 589.709 77.7951 588.878V588.402ZM73.2871 588.402H78.5511V589.368H73.2871V588.402ZM74.8691 598.86H83.1991V599.812H74.8691V598.86ZM74.8691 595.836H76.0451V599.336H74.8691V595.836ZM94.314 587.422H95.476V600.106H94.314V587.422ZM91.598 592.504H94.65V593.456H91.598V592.504ZM88.28 590.432H89.204V591.524C89.204 592.187 89.12 592.835 88.952 593.47C88.784 594.095 88.5413 594.679 88.224 595.22C87.9067 595.761 87.538 596.242 87.118 596.662C86.698 597.073 86.236 597.399 85.732 597.642L85.088 596.746C85.5453 596.522 85.97 596.228 86.362 595.864C86.754 595.5 87.0947 595.085 87.384 594.618C87.6733 594.151 87.8927 593.657 88.042 593.134C88.2007 592.602 88.28 592.065 88.28 591.524V590.432ZM88.504 590.432H89.428V591.524C89.428 592.047 89.5073 592.56 89.666 593.064C89.834 593.559 90.0627 594.03 90.352 594.478C90.6413 594.926 90.982 595.327 91.374 595.682C91.7753 596.027 92.2093 596.307 92.676 596.522L92.032 597.418C91.5187 597.185 91.0473 596.867 90.618 596.466C90.1887 596.065 89.8153 595.607 89.498 595.094C89.1807 594.571 88.9333 594.007 88.756 593.4C88.588 592.793 88.504 592.168 88.504 591.524V590.432ZM85.424 589.62H92.242V590.558H85.424V589.62ZM88.28 587.66H89.442V590.138H88.28V587.66ZM106.885 587.422H108.033V600.106H106.885V587.422ZM98.3869 596.074H99.4369C100.156 596.074 100.846 596.065 101.509 596.046C102.181 596.018 102.858 595.971 103.539 595.906C104.23 595.841 104.948 595.747 105.695 595.626L105.807 596.578C104.668 596.765 103.595 596.891 102.587 596.956C101.579 597.012 100.529 597.04 99.4369 597.04H98.3869V596.074ZM98.3589 588.598H104.211V593.12H99.5629V596.438H98.3869V592.182H103.035V589.55H98.3589V588.598Z" fill="white"/>
<rect x="175.5" y="145" width="167.5" height="529" rx="16" fill="#3A5381"/>
<path d="M235.641 190.898H238.053V207.62H235.641V190.898ZM237.531 197.072H240.465V199.052H237.531V197.072ZM225.633 201.644H227.037C227.985 201.644 228.873 201.632 229.701 201.608C230.529 201.572 231.333 201.518 232.113 201.446C232.893 201.362 233.691 201.248 234.507 201.104L234.741 203.084C233.901 203.228 233.073 203.342 232.257 203.426C231.453 203.51 230.625 203.564 229.773 203.588C228.921 203.612 228.009 203.624 227.037 203.624H225.633V201.644ZM225.633 192.446H233.409V194.372H228.027V202.58H225.633V192.446ZM241.202 199.934H256.286V201.842H241.202V199.934ZM243.092 205.388H254.846V207.314H243.092V205.388ZM243.092 202.742H245.468V206.234H243.092V202.742ZM243.038 191.294H254.45V195.938H245.432V197.648H243.074V194.246H252.092V193.112H243.038V191.294ZM243.074 197.09H254.774V198.908H243.074V197.09ZM261.716 203.822H276.818V205.766H261.716V203.822ZM268.052 200.654H270.428V204.596H268.052V200.654ZM263.426 191.996H275.108V197.558H265.82V200.348H263.444V195.686H272.732V193.904H263.426V191.996ZM263.444 199.412H275.486V201.32H263.444V199.412ZM287.112 194.948H290.856V196.874H287.112V194.948ZM289.452 190.934H291.864V200.654H289.452V190.934ZM280.74 201.392H291.864V207.422H280.74V201.392ZM289.506 203.264H283.098V205.532H289.506V203.264ZM278.31 191.924H287.184V193.814H278.31V191.924ZM278.148 200.258L277.914 198.296C278.862 198.296 279.894 198.29 281.01 198.278C282.138 198.266 283.284 198.23 284.448 198.17C285.612 198.11 286.716 198.014 287.76 197.882L287.922 199.628C286.842 199.808 285.726 199.946 284.574 200.042C283.434 200.126 282.312 200.186 281.208 200.222C280.104 200.246 279.084 200.258 278.148 200.258ZM279.642 193.436H281.946V199.016H279.642V193.436ZM283.566 193.436H285.87V199.016H283.566V193.436Z" fill="white"/>
<path d="M260 554L254.226 544H265.774L260 554ZM261 314V316H259V314H261ZM261 320V324H259V320H261ZM261 328V332H259V328H261ZM261 336V340H259V336H261ZM261 344V348H259V344H261ZM261 352V356H259V352H261ZM261 360V364H259V360H261ZM261 368V372H259V368H261ZM261 376V380H259V376H261ZM261 384V388H259V384H261ZM261 392V396H259V392H261ZM261 400V404H259V400H261ZM261 408V412H259V408H261ZM261 416V420H259V416H261ZM261 424V428H259V424H261ZM261 432V436H259V432H261ZM261 440V444H259V440H261ZM261 448V452H259V448H261ZM261 456V460H259V456H261ZM261 464V468H259V464H261ZM261 472V476H259V472H261ZM261 480V484H259V480H261ZM261 488V492H259V488H261ZM261 496V500H259V496H261ZM261 504V508H259V504H261ZM261 512V516H259V512H261ZM261 520V524H259V520H261ZM261 528V532H259V528H261ZM261 536V540H259V536H261ZM261 544V548H259V544H261ZM260 554L254.226 544H265.774L260 554ZM261 314V316H259V314H261ZM261 320V324H259V320H261ZM261 328V332H259V328H261ZM261 336V340H259V336H261ZM261 344V348H259V344H261ZM261 352V356H259V352H261ZM261 360V364H259V360H261ZM261 368V372H259V368H261ZM261 376V380H259V376H261ZM261 384V388H259V384H261ZM261 392V396H259V392H261ZM261 400V404H259V400H261ZM261 408V412H259V408H261ZM261 416V420H259V416H261ZM261 424V428H259V424H261ZM261 432V436H259V432H261ZM261 440V444H259V440H261ZM261 448V452H259V448H261ZM261 456V460H259V456H261ZM261 464V468H259V464H261ZM261 472V476H259V472H261ZM261 480V484H259V480H261ZM261 488V492H259V488H261ZM261 496V500H259V496H261ZM261 504V508H259V504H261ZM261 512V516H259V512H261ZM261 520V524H259V520H261ZM261 528V532H259V528H261ZM261 536V540H259V536H261ZM261 544V548H259V544H261Z" fill="#8F8F8F"/>
<rect x="219" y="234" width="80" height="80" rx="40" fill="white"/>
<path d="M257.093 256.422H258.199V269.092H257.093V256.422ZM254.951 261.504H257.387V262.456H254.951V261.504ZM254.223 256.702H255.301V268.434H254.223V256.702ZM247.909 264.99H248.735C249.36 264.99 249.925 264.985 250.429 264.976C250.942 264.957 251.428 264.92 251.885 264.864C252.352 264.808 252.828 264.729 253.313 264.626L253.425 265.592C252.921 265.695 252.431 265.774 251.955 265.83C251.488 265.886 250.994 265.923 250.471 265.942C249.958 265.961 249.379 265.97 248.735 265.97H247.909V264.99ZM247.909 257.962H252.613V258.914H249.071V265.438H247.909V257.962ZM263.238 263.282H264.4V266.894H263.238V263.282ZM267.13 263.296H268.292V266.908H267.13V263.296ZM260.06 266.586H271.54V267.552H260.06V266.586ZM261.068 257.598H270.462V258.55H261.068V257.598ZM261.096 262.652H270.434V263.604H261.096V262.652ZM263.028 258.368H264.19V262.848H263.028V258.368ZM267.34 258.368H268.488V262.848H267.34V258.368ZM247.21 280.746H250.85V281.698H247.21V280.746ZM247.21 283.476H250.878V284.428H247.21V283.476ZM250.416 278.436H251.578V287.802H250.416V278.436ZM243.444 289.86H251.872V290.812H243.444V289.86ZM243.444 286.892H244.606V290.336H243.444V286.892ZM241.778 279.276H242.94V281.502H246.356V279.276H247.504V285.646H241.778V279.276ZM242.94 282.412V284.708H246.356V282.412H242.94ZM254.321 280.284H264.611V281.236H254.321V280.284ZM253.761 288.656H265.241V289.608H253.761V288.656ZM258.899 286.64H260.047V289.02H258.899V286.64ZM259.473 282.076C260.322 282.076 261.055 282.174 261.671 282.37C262.296 282.557 262.777 282.827 263.113 283.182C263.449 283.537 263.617 283.971 263.617 284.484C263.617 284.988 263.449 285.422 263.113 285.786C262.777 286.15 262.296 286.43 261.671 286.626C261.055 286.813 260.322 286.906 259.473 286.906C258.623 286.906 257.886 286.813 257.261 286.626C256.645 286.43 256.169 286.15 255.833 285.786C255.497 285.422 255.329 284.988 255.329 284.484C255.329 283.971 255.497 283.537 255.833 283.182C256.169 282.827 256.645 282.557 257.261 282.37C257.886 282.174 258.623 282.076 259.473 282.076ZM259.473 283C258.857 283 258.325 283.061 257.877 283.182C257.438 283.294 257.097 283.462 256.855 283.686C256.621 283.901 256.505 284.167 256.505 284.484C256.505 284.792 256.621 285.058 256.855 285.282C257.097 285.506 257.438 285.679 257.877 285.8C258.325 285.912 258.857 285.968 259.473 285.968C260.089 285.968 260.616 285.912 261.055 285.8C261.493 285.679 261.834 285.506 262.077 285.282C262.319 285.058 262.441 284.792 262.441 284.484C262.441 284.167 262.319 283.901 262.077 283.686C261.834 283.462 261.493 283.294 261.055 283.182C260.616 283.061 260.089 283 259.473 283ZM258.899 278.632H260.047V280.858H258.899V278.632ZM269.453 279.514H270.405V281.782C270.405 282.482 270.317 283.168 270.139 283.84C269.971 284.512 269.729 285.142 269.411 285.73C269.094 286.318 268.721 286.841 268.291 287.298C267.862 287.755 267.395 288.119 266.891 288.39L266.177 287.452C266.644 287.219 267.073 286.906 267.465 286.514C267.867 286.113 268.217 285.655 268.515 285.142C268.814 284.629 269.043 284.087 269.201 283.518C269.369 282.939 269.453 282.361 269.453 281.782V279.514ZM269.663 279.514H270.601V281.782C270.601 282.342 270.681 282.897 270.839 283.448C271.007 283.999 271.241 284.517 271.539 285.002C271.838 285.487 272.179 285.921 272.561 286.304C272.953 286.687 273.373 286.99 273.821 287.214L273.107 288.138C272.613 287.886 272.155 287.541 271.735 287.102C271.325 286.663 270.961 286.164 270.643 285.604C270.335 285.035 270.093 284.428 269.915 283.784C269.747 283.131 269.663 282.463 269.663 281.782V279.514ZM274.927 278.422H276.089V291.092H274.927V278.422ZM275.823 283.546H278.161V284.54H275.823V283.546Z" fill="#1F1E29"/>
<rect x="219" y="334" width="80" height="80" rx="40" fill="#EFEFEF"/>
<path d="M248.189 362.274H249.211C250.126 362.274 250.919 362.269 251.591 362.26C252.272 362.241 252.902 362.204 253.481 362.148C254.06 362.092 254.643 362.017 255.231 361.924L255.357 362.848C254.741 362.951 254.139 363.03 253.551 363.086C252.963 363.133 252.324 363.165 251.633 363.184C250.942 363.203 250.135 363.212 249.211 363.212H248.189V362.274ZM248.189 357.192H254.209V358.144H249.351V362.75H248.189V357.192ZM248.973 359.698H253.859V360.622H248.973V359.698ZM256.673 356.436H257.835V363.982H256.673V356.436ZM249.659 364.612H257.835V368.924H249.659V364.612ZM256.701 365.536H250.793V367.972H256.701V365.536ZM263.182 357.78H264.134V358.802C264.134 359.586 263.985 360.309 263.686 360.972C263.397 361.635 262.986 362.213 262.454 362.708C261.931 363.203 261.311 363.581 260.592 363.842L260.004 362.918C260.639 362.694 261.194 362.377 261.67 361.966C262.146 361.546 262.515 361.065 262.776 360.524C263.047 359.983 263.182 359.409 263.182 358.802V357.78ZM263.392 357.78H264.344V358.802C264.344 359.353 264.47 359.875 264.722 360.37C264.974 360.865 265.329 361.299 265.786 361.672C266.243 362.045 266.78 362.339 267.396 362.554L266.85 363.464C266.141 363.221 265.529 362.871 265.016 362.414C264.503 361.957 264.101 361.42 263.812 360.804C263.532 360.179 263.392 359.511 263.392 358.802V357.78ZM260.354 357.36H267.13V358.312H260.354V357.36ZM268.726 356.422H269.888V364.052H268.726V356.422ZM269.566 359.642H271.75V360.608H269.566V359.642ZM265.856 364.402C266.715 364.402 267.452 364.495 268.068 364.682C268.693 364.859 269.174 365.121 269.51 365.466C269.846 365.811 270.014 366.231 270.014 366.726C270.014 367.221 269.846 367.641 269.51 367.986C269.174 368.331 268.693 368.597 268.068 368.784C267.452 368.971 266.715 369.064 265.856 369.064C264.997 369.064 264.255 368.971 263.63 368.784C263.005 368.597 262.524 368.331 262.188 367.986C261.852 367.641 261.684 367.221 261.684 366.726C261.684 366.231 261.852 365.811 262.188 365.466C262.524 365.121 263.005 364.859 263.63 364.682C264.255 364.495 264.997 364.402 265.856 364.402ZM265.856 365.326C265.231 365.326 264.689 365.382 264.232 365.494C263.784 365.606 263.439 365.765 263.196 365.97C262.953 366.175 262.832 366.427 262.832 366.726C262.832 367.025 262.953 367.281 263.196 367.496C263.439 367.701 263.784 367.86 264.232 367.972C264.689 368.084 265.231 368.14 265.856 368.14C266.481 368.14 267.018 368.084 267.466 367.972C267.914 367.86 268.259 367.701 268.502 367.496C268.745 367.281 268.866 367.025 268.866 366.726C268.866 366.427 268.745 366.175 268.502 365.97C268.259 365.765 267.914 365.606 267.466 365.494C267.018 365.382 266.481 365.326 265.856 365.326ZM247.21 380.746H250.85V381.698H247.21V380.746ZM247.21 383.476H250.878V384.428H247.21V383.476ZM250.416 378.436H251.578V387.802H250.416V378.436ZM243.444 389.86H251.872V390.812H243.444V389.86ZM243.444 386.892H244.606V390.336H243.444V386.892ZM241.778 379.276H242.94V381.502H246.356V379.276H247.504V385.646H241.778V379.276ZM242.94 382.412V384.708H246.356V382.412H242.94ZM254.321 380.284H264.611V381.236H254.321V380.284ZM253.761 388.656H265.241V389.608H253.761V388.656ZM258.899 386.64H260.047V389.02H258.899V386.64ZM259.473 382.076C260.322 382.076 261.055 382.174 261.671 382.37C262.296 382.557 262.777 382.827 263.113 383.182C263.449 383.537 263.617 383.971 263.617 384.484C263.617 384.988 263.449 385.422 263.113 385.786C262.777 386.15 262.296 386.43 261.671 386.626C261.055 386.813 260.322 386.906 259.473 386.906C258.623 386.906 257.886 386.813 257.261 386.626C256.645 386.43 256.169 386.15 255.833 385.786C255.497 385.422 255.329 384.988 255.329 384.484C255.329 383.971 255.497 383.537 255.833 383.182C256.169 382.827 256.645 382.557 257.261 382.37C257.886 382.174 258.623 382.076 259.473 382.076ZM259.473 383C258.857 383 258.325 383.061 257.877 383.182C257.438 383.294 257.097 383.462 256.855 383.686C256.621 383.901 256.505 384.167 256.505 384.484C256.505 384.792 256.621 385.058 256.855 385.282C257.097 385.506 257.438 385.679 257.877 385.8C258.325 385.912 258.857 385.968 259.473 385.968C260.089 385.968 260.616 385.912 261.055 385.8C261.493 385.679 261.834 385.506 262.077 385.282C262.319 385.058 262.441 384.792 262.441 384.484C262.441 384.167 262.319 383.901 262.077 383.686C261.834 383.462 261.493 383.294 261.055 383.182C260.616 383.061 260.089 383 259.473 383ZM258.899 378.632H260.047V380.858H258.899V378.632ZM269.453 379.514H270.405V381.782C270.405 382.482 270.317 383.168 270.139 383.84C269.971 384.512 269.729 385.142 269.411 385.73C269.094 386.318 268.721 386.841 268.291 387.298C267.862 387.755 267.395 388.119 266.891 388.39L266.177 387.452C266.644 387.219 267.073 386.906 267.465 386.514C267.867 386.113 268.217 385.655 268.515 385.142C268.814 384.629 269.043 384.087 269.201 383.518C269.369 382.939 269.453 382.361 269.453 381.782V379.514ZM269.663 379.514H270.601V381.782C270.601 382.342 270.681 382.897 270.839 383.448C271.007 383.999 271.241 384.517 271.539 385.002C271.838 385.487 272.179 385.921 272.561 386.304C272.953 386.687 273.373 386.99 273.821 387.214L273.107 388.138C272.613 387.886 272.155 387.541 271.735 387.102C271.325 386.663 270.961 386.164 270.643 385.604C270.335 385.035 270.093 384.428 269.915 383.784C269.747 383.131 269.663 382.463 269.663 381.782V379.514ZM274.927 378.422H276.089V391.092H274.927V378.422ZM275.823 383.546H278.161V384.54H275.823V383.546Z" fill="#1F1E29"/>
<rect x="219" y="434" width="80" height="80" rx="40" fill="#D6D6D6"/>
<path d="M251.017 456.884C251.652 456.884 252.212 457.005 252.697 457.248C253.192 457.481 253.579 457.808 253.859 458.228C254.139 458.648 254.279 459.138 254.279 459.698C254.279 460.249 254.139 460.739 253.859 461.168C253.579 461.588 253.192 461.915 252.697 462.148C252.212 462.381 251.652 462.498 251.017 462.498C250.392 462.498 249.832 462.381 249.337 462.148C248.842 461.915 248.45 461.588 248.161 461.168C247.881 460.739 247.741 460.249 247.741 459.698C247.741 459.138 247.881 458.648 248.161 458.228C248.45 457.808 248.842 457.481 249.337 457.248C249.832 457.005 250.392 456.884 251.017 456.884ZM251.017 457.85C250.606 457.85 250.238 457.929 249.911 458.088C249.594 458.237 249.342 458.452 249.155 458.732C248.968 459.012 248.875 459.334 248.875 459.698C248.875 460.062 248.968 460.384 249.155 460.664C249.342 460.935 249.594 461.149 249.911 461.308C250.238 461.467 250.606 461.546 251.017 461.546C251.428 461.546 251.792 461.467 252.109 461.308C252.436 461.149 252.692 460.935 252.879 460.664C253.066 460.384 253.159 460.062 253.159 459.698C253.159 459.334 253.066 459.012 252.879 458.732C252.692 458.452 252.436 458.237 252.109 458.088C251.792 457.929 251.428 457.85 251.017 457.85ZM256.673 456.422H257.835V462.904H256.673V456.422ZM249.645 463.534H257.835V466.6H250.807V468.504H249.687V465.732H256.687V464.458H249.645V463.534ZM249.687 467.986H258.269V468.924H249.687V467.986ZM268.726 456.436H269.888V465.732H268.726V456.436ZM269.524 460.258H271.75V461.224H269.524V460.258ZM262.006 467.86H270.448V468.812H262.006V467.86ZM262.006 464.836H263.154V468.07H262.006V464.836ZM260.578 457.346H261.726V459.46H265.296V457.346H266.444V463.604H260.578V457.346ZM261.726 460.37V462.666H265.296V460.37H261.726ZM247.21 480.746H250.85V481.698H247.21V480.746ZM247.21 483.476H250.878V484.428H247.21V483.476ZM250.416 478.436H251.578V487.802H250.416V478.436ZM243.444 489.86H251.872V490.812H243.444V489.86ZM243.444 486.892H244.606V490.336H243.444V486.892ZM241.778 479.276H242.94V481.502H246.356V479.276H247.504V485.646H241.778V479.276ZM242.94 482.412V484.708H246.356V482.412H242.94ZM254.321 480.284H264.611V481.236H254.321V480.284ZM253.761 488.656H265.241V489.608H253.761V488.656ZM258.899 486.64H260.047V489.02H258.899V486.64ZM259.473 482.076C260.322 482.076 261.055 482.174 261.671 482.37C262.296 482.557 262.777 482.827 263.113 483.182C263.449 483.537 263.617 483.971 263.617 484.484C263.617 484.988 263.449 485.422 263.113 485.786C262.777 486.15 262.296 486.43 261.671 486.626C261.055 486.813 260.322 486.906 259.473 486.906C258.623 486.906 257.886 486.813 257.261 486.626C256.645 486.43 256.169 486.15 255.833 485.786C255.497 485.422 255.329 484.988 255.329 484.484C255.329 483.971 255.497 483.537 255.833 483.182C256.169 482.827 256.645 482.557 257.261 482.37C257.886 482.174 258.623 482.076 259.473 482.076ZM259.473 483C258.857 483 258.325 483.061 257.877 483.182C257.438 483.294 257.097 483.462 256.855 483.686C256.621 483.901 256.505 484.167 256.505 484.484C256.505 484.792 256.621 485.058 256.855 485.282C257.097 485.506 257.438 485.679 257.877 485.8C258.325 485.912 258.857 485.968 259.473 485.968C260.089 485.968 260.616 485.912 261.055 485.8C261.493 485.679 261.834 485.506 262.077 485.282C262.319 485.058 262.441 484.792 262.441 484.484C262.441 484.167 262.319 483.901 262.077 483.686C261.834 483.462 261.493 483.294 261.055 483.182C260.616 483.061 260.089 483 259.473 483ZM258.899 478.632H260.047V480.858H258.899V478.632ZM269.453 479.514H270.405V481.782C270.405 482.482 270.317 483.168 270.139 483.84C269.971 484.512 269.729 485.142 269.411 485.73C269.094 486.318 268.721 486.841 268.291 487.298C267.862 487.755 267.395 488.119 266.891 488.39L266.177 487.452C266.644 487.219 267.073 486.906 267.465 486.514C267.867 486.113 268.217 485.655 268.515 485.142C268.814 484.629 269.043 484.087 269.201 483.518C269.369 482.939 269.453 482.361 269.453 481.782V479.514ZM269.663 479.514H270.601V481.782C270.601 482.342 270.681 482.897 270.839 483.448C271.007 483.999 271.241 484.517 271.539 485.002C271.838 485.487 272.179 485.921 272.561 486.304C272.953 486.687 273.373 486.99 273.821 487.214L273.107 488.138C272.613 487.886 272.155 487.541 271.735 487.102C271.325 486.663 270.961 486.164 270.643 485.604C270.335 485.035 270.093 484.428 269.915 483.784C269.747 483.131 269.663 482.463 269.663 481.782V479.514ZM274.927 478.422H276.089V491.092H274.927V478.422ZM275.823 483.546H278.161V484.54H275.823V483.546Z" fill="#1F1E29"/>
<rect x="220" y="554" width="80" height="80" rx="40" fill="#8F8F8F"/>
<path d="M238.956 588.514H239.908V590.782C239.908 591.482 239.82 592.168 239.642 592.84C239.474 593.512 239.232 594.142 238.914 594.73C238.597 595.318 238.224 595.841 237.794 596.298C237.365 596.755 236.898 597.119 236.394 597.39L235.68 596.452C236.147 596.219 236.576 595.906 236.968 595.514C237.37 595.113 237.72 594.655 238.018 594.142C238.317 593.629 238.546 593.087 238.704 592.518C238.872 591.939 238.956 591.361 238.956 590.782V588.514ZM239.166 588.514H240.104V590.782C240.104 591.342 240.184 591.897 240.342 592.448C240.51 592.999 240.744 593.517 241.042 594.002C241.341 594.487 241.682 594.921 242.064 595.304C242.456 595.687 242.876 595.99 243.324 596.214L242.61 597.138C242.116 596.886 241.658 596.541 241.238 596.102C240.828 595.663 240.464 595.164 240.146 594.604C239.838 594.035 239.596 593.428 239.418 592.784C239.25 592.131 239.166 591.463 239.166 590.782V588.514ZM244.43 587.422H245.592V600.092H244.43V587.422ZM245.326 592.546H247.664V593.54H245.326V592.546ZM257.715 587.436H258.877V596.788H257.715V587.436ZM254.971 591.328H257.939V592.294H254.971V591.328ZM253.795 588.402H255.027C255.027 589.494 254.784 590.493 254.299 591.398C253.814 592.294 253.132 593.073 252.255 593.736C251.378 594.399 250.342 594.931 249.147 595.332L248.657 594.394C249.684 594.049 250.584 593.605 251.359 593.064C252.134 592.523 252.731 591.897 253.151 591.188C253.58 590.479 253.795 589.709 253.795 588.878V588.402ZM249.287 588.402H254.551V589.368H249.287V588.402ZM250.869 598.86H259.199V599.812H250.869V598.86ZM250.869 595.836H252.045V599.336H250.869V595.836ZM270.314 587.422H271.476V600.106H270.314V587.422ZM267.598 592.504H270.65V593.456H267.598V592.504ZM264.28 590.432H265.204V591.524C265.204 592.187 265.12 592.835 264.952 593.47C264.784 594.095 264.541 594.679 264.224 595.22C263.907 595.761 263.538 596.242 263.118 596.662C262.698 597.073 262.236 597.399 261.732 597.642L261.088 596.746C261.545 596.522 261.97 596.228 262.362 595.864C262.754 595.5 263.095 595.085 263.384 594.618C263.673 594.151 263.893 593.657 264.042 593.134C264.201 592.602 264.28 592.065 264.28 591.524V590.432ZM264.504 590.432H265.428V591.524C265.428 592.047 265.507 592.56 265.666 593.064C265.834 593.559 266.063 594.03 266.352 594.478C266.641 594.926 266.982 595.327 267.374 595.682C267.775 596.027 268.209 596.307 268.676 596.522L268.032 597.418C267.519 597.185 267.047 596.867 266.618 596.466C266.189 596.065 265.815 595.607 265.498 595.094C265.181 594.571 264.933 594.007 264.756 593.4C264.588 592.793 264.504 592.168 264.504 591.524V590.432ZM261.424 589.62H268.242V590.558H261.424V589.62ZM264.28 587.66H265.442V590.138H264.28V587.66ZM282.885 587.422H284.033V600.106H282.885V587.422ZM274.387 596.074H275.437C276.156 596.074 276.846 596.065 277.509 596.046C278.181 596.018 278.858 595.971 279.539 595.906C280.23 595.841 280.948 595.747 281.695 595.626L281.807 596.578C280.668 596.765 279.595 596.891 278.587 596.956C277.579 597.012 276.529 597.04 275.437 597.04H274.387V596.074ZM274.359 588.598H280.211V593.12H275.563V596.438H274.387V592.182H279.035V589.55H274.359V588.598Z" fill="white"/>
</svg>
