<svg width="259" height="51" viewBox="0 0 259 51" fill="none" xmlns="http://www.w3.org/2000/svg">
<rect width="259" height="51" fill="url(#paint0_linear_11_39)"/>
<path d="M29.6809 18.864H36.5609V22.288H29.6809V18.864ZM34.3209 11.216H38.6089V32.816H34.3209V11.216ZM19.0249 36.912H39.2809V40.336H19.0249V36.912ZM19.0249 30.992H23.2809V38.928H19.0249V30.992ZM20.6569 15.088H24.1129V16.944C24.1129 18.8213 23.8142 20.6027 23.2169 22.288C22.6195 23.9733 21.7022 25.456 20.4649 26.736C19.2489 27.9947 17.6809 28.944 15.7609 29.584L13.6489 26.192C14.8649 25.7867 15.9102 25.264 16.7849 24.624C17.6809 23.9627 18.4062 23.216 18.9609 22.384C19.5369 21.552 19.9635 20.6773 20.2409 19.76C20.5182 18.8427 20.6569 17.904 20.6569 16.944V15.088ZM21.5529 15.088H24.9449V16.944C24.9449 18.096 25.1795 19.248 25.6489 20.4C26.1182 21.5307 26.8435 22.5653 27.8249 23.504C28.8275 24.4213 30.1075 25.1467 31.6649 25.68L29.5849 28.976C27.7502 28.3573 26.2355 27.4507 25.0409 26.256C23.8675 25.04 22.9929 23.632 22.4169 22.032C21.8409 20.4107 21.5529 18.7147 21.5529 16.944V15.088ZM14.8009 13.2H30.7369V16.592H14.8009V13.2ZM54.6704 22.416H59.3424V25.872H54.6704V22.416ZM47.7584 19.44H50.9904V20.208C50.9904 21.744 50.8624 23.2693 50.6064 24.784C50.3717 26.2773 49.9877 27.696 49.4544 29.04C48.9424 30.3627 48.2704 31.568 47.4384 32.656C46.6277 33.7227 45.625 34.5973 44.4304 35.28L42.0624 32.08C43.1077 31.4613 43.993 30.7147 44.7184 29.84C45.4437 28.944 46.0304 27.9733 46.4784 26.928C46.9477 25.8613 47.2784 24.7627 47.4704 23.632C47.6624 22.48 47.7584 21.3387 47.7584 20.208V19.44ZM48.5904 19.44H51.8224V20.208C51.8224 21.296 51.9184 22.3947 52.1104 23.504C52.3237 24.6133 52.6544 25.6587 53.1024 26.64C53.5504 27.6213 54.137 28.528 54.8624 29.36C55.5877 30.1707 56.473 30.8533 57.5184 31.408L55.2144 34.576C53.6357 33.744 52.3557 32.592 51.3744 31.12C50.393 29.6267 49.6784 27.9413 49.2304 26.064C48.8037 24.1653 48.5904 22.2133 48.5904 20.208V19.44ZM43.1504 16.176H56.3664V19.6H43.1504V16.176ZM47.7584 12.176H51.8224V18.928H47.7584V12.176ZM63.9824 11.184H68.0464V40.816H63.9824V11.184ZM57.9984 11.664H61.9664V39.472H57.9984V11.664ZM93.6044 16.144H101.156V19.536H93.6044V16.144ZM93.6044 22.512H101.252V25.904H93.6044V22.512ZM99.5884 11.216H103.876V33.072H99.5884V11.216ZM84.2604 36.912H104.516V40.336H84.2604V36.912ZM84.2604 30.928H88.5164V38.864H84.2604V30.928ZM80.2924 13.168H84.5164V17.648H90.1484V13.168H94.3404V28.464H80.2924V13.168ZM84.5164 20.912V25.072H90.1484V20.912H84.5164ZM109.026 14.896H133.442V18.288H109.026V14.896ZM107.874 34.448H134.722V37.872H107.874V34.448ZM119.106 30.512H123.362V35.792H119.106V30.512ZM121.218 19.536C123.266 19.536 125.037 19.7707 126.53 20.24C128.045 20.688 129.207 21.3493 130.018 22.224C130.829 23.0773 131.234 24.112 131.234 25.328C131.234 26.544 130.829 27.5893 130.018 28.464C129.207 29.3173 128.045 29.9787 126.53 30.448C125.037 30.896 123.255 31.12 121.186 31.12C119.138 31.12 117.357 30.896 115.842 30.448C114.349 29.9787 113.197 29.3173 112.386 28.464C111.575 27.5893 111.17 26.544 111.17 25.328C111.17 24.112 111.575 23.0773 112.386 22.224C113.197 21.3493 114.349 20.688 115.842 20.24C117.357 19.7707 119.149 19.536 121.218 19.536ZM121.186 22.832C119.97 22.832 118.935 22.928 118.082 23.12C117.229 23.2907 116.578 23.5573 116.13 23.92C115.703 24.2827 115.49 24.752 115.49 25.328C115.49 25.8827 115.703 26.352 116.13 26.736C116.578 27.0987 117.229 27.3653 118.082 27.536C118.935 27.7067 119.97 27.792 121.186 27.792C122.445 27.792 123.49 27.7067 124.322 27.536C125.154 27.3653 125.783 27.0987 126.21 26.736C126.658 26.352 126.882 25.8827 126.882 25.328C126.882 24.752 126.658 24.2827 126.21 23.92C125.783 23.5573 125.154 23.2907 124.322 23.12C123.49 22.928 122.445 22.832 121.186 22.832ZM119.106 11.504H123.362V17.008H119.106V11.504ZM143.327 13.488H146.751V17.776C146.751 19.6107 146.591 21.4027 146.271 23.152C145.951 24.88 145.45 26.4907 144.767 27.984C144.106 29.4773 143.263 30.8107 142.239 31.984C141.215 33.136 140.01 34.0533 138.623 34.736L136.063 31.312C137.322 30.736 138.399 29.968 139.295 29.008C140.213 28.048 140.97 26.96 141.567 25.744C142.165 24.528 142.602 23.248 142.879 21.904C143.178 20.5387 143.327 19.1627 143.327 17.776V13.488ZM144.159 13.488H147.583V17.776C147.583 19.12 147.711 20.4427 147.967 21.744C148.245 23.0453 148.661 24.2827 149.215 25.456C149.791 26.608 150.506 27.6427 151.359 28.56C152.213 29.4773 153.237 30.2347 154.431 30.832L151.839 34.224C150.517 33.5413 149.365 32.6453 148.383 31.536C147.423 30.4053 146.634 29.1147 146.015 27.664C145.397 26.192 144.927 24.624 144.607 22.96C144.309 21.2747 144.159 19.5467 144.159 17.776V13.488ZM155.583 11.216H159.871V40.848H155.583V11.216ZM158.943 22.608H164.159V26.128H158.943V22.608ZM175.005 13.168C176.541 13.168 177.928 13.4773 179.165 14.096C180.402 14.7147 181.373 15.5787 182.077 16.688C182.781 17.776 183.133 19.0347 183.133 20.464C183.133 21.872 182.781 23.1307 182.077 24.24C181.373 25.3493 180.402 26.2133 179.165 26.832C177.928 27.4507 176.541 27.76 175.005 27.76C173.448 27.76 172.05 27.4507 170.813 26.832C169.576 26.2133 168.594 25.3493 167.869 24.24C167.165 23.1307 166.813 21.872 166.813 20.464C166.813 19.0347 167.165 17.776 167.869 16.688C168.594 15.5787 169.576 14.7147 170.813 14.096C172.05 13.4773 173.448 13.168 175.005 13.168ZM175.005 16.816C174.237 16.816 173.544 16.9653 172.925 17.264C172.328 17.5413 171.848 17.9573 171.485 18.512C171.144 19.0453 170.973 19.696 170.973 20.464C170.973 21.232 171.144 21.8933 171.485 22.448C171.848 23.0027 172.328 23.4293 172.925 23.728C173.544 24.0053 174.237 24.144 175.005 24.144C175.752 24.144 176.424 24.0053 177.021 23.728C177.618 23.4293 178.088 23.0027 178.429 22.448C178.792 21.8933 178.973 21.232 178.973 20.464C178.973 19.696 178.792 19.0453 178.429 18.512C178.088 17.9573 177.618 17.5413 177.021 17.264C176.424 16.9653 175.752 16.816 175.005 16.816ZM185.917 11.152H190.173V40.88H185.917V11.152ZM166.077 34.896L165.597 31.44C167.325 31.44 169.234 31.4293 171.325 31.408C173.437 31.3653 175.602 31.28 177.821 31.152C180.061 31.0027 182.226 30.7787 184.317 30.48L184.605 33.552C182.472 33.9787 180.306 34.288 178.109 34.48C175.912 34.6507 173.789 34.768 171.741 34.832C169.693 34.8747 167.805 34.896 166.077 34.896ZM213.843 38H209.011V24.784C209.011 24.4213 209.011 23.9733 209.011 23.44C209.032 22.9067 209.054 22.352 209.075 21.776C209.096 21.2 209.118 20.688 209.139 20.24C209.032 20.368 208.798 20.6027 208.435 20.944C208.094 21.264 207.774 21.552 207.475 21.808L204.851 23.92L202.515 21.008L209.875 15.152H213.843V38ZM224.667 14.832C226.459 14.832 227.814 15.4613 228.731 16.72C229.67 17.9573 230.139 19.7067 230.139 21.968C230.139 24.2293 229.702 26 228.827 27.28C227.953 28.5387 226.566 29.168 224.667 29.168C223.494 29.168 222.502 28.88 221.691 28.304C220.902 27.728 220.305 26.9067 219.899 25.84C219.494 24.752 219.291 23.4613 219.291 21.968C219.291 19.7067 219.718 17.9573 220.571 16.72C221.425 15.4613 222.79 14.832 224.667 14.832ZM224.699 18.096C224.187 18.096 223.814 18.416 223.579 19.056C223.345 19.696 223.227 20.6773 223.227 22C223.227 23.3013 223.345 24.2827 223.579 24.944C223.814 25.6053 224.187 25.936 224.699 25.936C225.211 25.936 225.585 25.6053 225.819 24.944C226.075 24.2827 226.203 23.3013 226.203 22C226.203 20.6773 226.075 19.696 225.819 19.056C225.585 18.416 225.211 18.096 224.699 18.096ZM240.891 15.152L228.219 38H224.475L237.147 15.152H240.891ZM240.667 23.952C241.862 23.952 242.865 24.24 243.675 24.816C244.486 25.3707 245.094 26.1813 245.499 27.248C245.926 28.2933 246.139 29.5733 246.139 31.088C246.139 33.3493 245.702 35.12 244.827 36.4C243.953 37.6587 242.566 38.288 240.667 38.288C239.494 38.288 238.502 38 237.691 37.424C236.902 36.848 236.305 36.0267 235.899 34.96C235.494 33.872 235.291 32.5813 235.291 31.088C235.291 28.8267 235.718 27.0773 236.571 25.84C237.425 24.5813 238.79 23.952 240.667 23.952ZM240.699 27.216C240.187 27.216 239.814 27.536 239.579 28.176C239.345 28.816 239.227 29.7973 239.227 31.12C239.227 32.4213 239.345 33.4027 239.579 34.064C239.814 34.7253 240.187 35.056 240.699 35.056C241.211 35.056 241.585 34.736 241.819 34.096C242.075 33.4347 242.203 32.4427 242.203 31.12C242.203 29.7973 242.075 28.816 241.819 28.176C241.585 27.536 241.211 27.216 240.699 27.216Z" fill="white"/>
<defs>
<linearGradient id="paint0_linear_11_39" x1="259" y1="25.5" x2="0" y2="25.5" gradientUnits="userSpaceOnUse">
<stop stop-color="#397BF4"/>
<stop offset="1" stop-color="#0014C0"/>
</linearGradient>
</defs>
</svg>
